/* XPM */
static char *a8598e1573ea4f54b338854163459895eaIeooLiW4wiQ1lt[] = {
/* columns rows colors chars-per-pixel */
"64 64 117 2 ",
"   c None",
".  c #000000",
"X  c #0C0B0C",
"o  c #131313",
"O  c #1B1B1C",
"+  c #212121",
"@  c #2F2F2F",
"#  c #302F2F",
"$  c #363535",
"%  c #3B3B3B",
"&  c #444444",
"*  c #4B4B4B",
"=  c #545454",
"-  c #585757",
";  c #585857",
":  c #575758",
">  c #5C5C5C",
",  c #646464",
"<  c #6C6C6C",
"1  c #706F6F",
"2  c #6F706F",
"3  c #6F6F70",
"4  c #737373",
"5  c #777877",
"6  c #7B7C7C",
"7  c #7F807F",
"8  c #80807F",
"9  c #7F7F80",
"0  c #807F80",
"q  c #7F8080",
"w  c #808080",
"e  c #818181",
"r  c #828181",
"t  c #818281",
"y  c #828281",
"u  c #828182",
"i  c #818282",
"p  c gray51",
"a  c #838383",
"s  c #848383",
"d  c #838483",
"f  c #848483",
"g  c #838384",
"h  c #848384",
"j  c #838484",
"k  c #858484",
"l  c gray52",
"z  c #868585",
"x  c #858685",
"c  c #868685",
"v  c #868686",
"b  c #878686",
"n  c #878687",
"m  c #868787",
"M  c gray53",
"N  c #888888",
"B  c #888988",
"V  c #898889",
"C  c #888989",
"Z  c #898989",
"A  c gray54",
"S  c #8B8A8A",
"D  c #8A8B8A",
"F  c #8B8B8A",
"G  c #8A8A8B",
"H  c #8B8A8B",
"J  c #8A8B8B",
"K  c #8B8B8B",
"L  c gray55",
"P  c #8D8C8C",
"I  c #8C8D8C",
"U  c #8D8D8C",
"Y  c #8C8C8D",
"T  c #8D8C8D",
"R  c #8C8D8D",
"E  c #8D8D8D",
"W  c #8E8E8E",
"Q  c #8F8E8E",
"!  c #8E8F8E",
"~  c #8F8F8E",
"^  c #8E8E8F",
"/  c #8F8E8F",
"(  c #8E8F8F",
")  c gray56",
"_  c #909090",
"`  c #919090",
"'  c #909190",
"]  c #909091",
"[  c #919292",
"{  c #929292",
"}  c #939493",
"|  c #949493",
" . c #939394",
".. c #949394",
"X. c #939494",
"o. c gray58",
"O. c #959595",
"+. c #969595",
"@. c #959695",
"#. c #969695",
"$. c #959596",
"%. c #969596",
"&. c #959696",
"*. c gray59",
"=. c #979797",
"-. c #989797",
";. c #979897",
":. c #989897",
">. c #979798",
",. c #989798",
"<. c #979898",
"1. c #989898",
"2. c gray60",
"3. c #9A9999",
"4. c #999A99",
"5. c #99999A",
"6. c #999A9A",
/* pixels */
"                                                                                                                                ",
"                                                                                                                                ",
"                                                                                                                                ",
"                                                                                                                                ",
"                                                                                                                                ",
"                                                                                                                                ",
"                                                                                                                                ",
"                                                                                                                                ",
"                                                                                                                                ",
"                                                                                                                                ",
"                                                                                                                                ",
"                                                                                                                                ",
"                                                                                                                                ",
"                                      . . . . . . . . . . . . . . . . . . . . . . . . . . . .                                   ",
"                                    . . . . . . . . . . . . . . . . . . . . . . . . . . . . . .                                 ",
"                                    . . . < < < < < < < < < < < < < < < < < < < < < < < . . . . .                               ",
"                                  . . . . , , , , , , < , , , , , , , , , , , , , , , , . . 4 . .                               ",
"                                  . . . . , , , , , , , , , , , , , , , , , , , , , , , . . < . .                               ",
"                                . . . . . , , , , , , , , , , , , , , , , , , , , , , , . . < . .                               ",
"                              . . . , . . > > > > > > > > > > > > > > > > > > , > > > > . . , . .                               ",
"                              . . , , . . > > > > > > > > > > > > > > > > > > > > > > > . . , . . .                             ",
"                            . . . , , . . > > > > > > > > > > > > > > > > > > > > > > . . . , , . .                             ",
"                            . . > > > . . . : : : : : : : : : : : : : : : : : : : : : . . > > > . .                             ",
"                          . . . > > > > . . = : = = = = : : = = = = = : = = = = : = = . . > > > . .                             ",
"                        . . . : > : : - . . = = = = = = = = = = = = = = = = = = = = = . . : ; : . .                             ",
"                        . . . . . . . . . . . . . . . . . . . . . . . . . . . . . . . . . . . . . .                             ",
"                        . . . . . . . . . . . . . . . . . . . . . . . . . . . . . . . . . . . . . .                             ",
"                        . . 2.2.2.2.2.2.2.2.2.2.2.2.2.2.2.2.2.2.2.2.2.2.2.2.2.2.2.2.2.2.2.2.2.. .                               ",
"                        . . =.2.,.:.,.>.;.>.2.=.-.;.=.,.=.=.:.2.>.,.>.=.2.:.-.<.-.>.2.<.<.-.-.. .                               ",
"                        . . =.=.=.=.=.=.=.=.=.=.=.=.=.=.=.=.=.=.=.=.=.=.=.=.=.=.=.=.=.=.=.=.=.. .                               ",
"                        . . | =...X.=.X. .=.| |  .=.=.X.=.| } =.=.=...=.| { ..} =.=.X.=.} ... . .                               ",
"                        . . . { { { { { { { { { { { { { { { { { { e e { { { { { { { { { { { . .                                 ",
"                          . . { ) ) { _ { { _ _ _ _ _ _ { { Q Q & . . 2 _ _ Q _ _ _ { { { _ . .                                 ",
"                          . . Q Q Q Q Q Q Q Q Q Q Q Q Q Q Q Q X . . . * Q Q Q Q Q Q Q Q Q Q . .                                 ",
"                          . . Q K Q Q Q Q Q Q Q Q Q Q Q Q Q Q X . . . . 6 Q Q Q Q Q Q Q Q . . .                                 ",
"                          . . H H H H H H H H H H H H H & & e H O . . . % H H H H H H H H . .                                   ",
"                          . . . H H H H H H H H H e X o . . 5 H H X . . . N H H H H H H H . .                                   ",
"                            . . M M M M M M f 5 X . . . . . 5 M M M X . . X & 4 M M M M M . .                                   ",
"                            . . M M M M M M 6 $ * . . . . & M M M M M + . X O 4 M M M M M . .                                   ",
"                            . . j s g e e e e d + . . . . % e h f o o X . . . 4 f f e g . . .                                   ",
"                            . . e e e e e e 4 $ . . : o X e e e e e X X . . . 4 e e e e . .                                     ",
"                            . . . 6 e e 8 * . . . X 8 & & 7 7 6 $ 4 9 , % $ . 1 8 q 0 7 . .                                     ",
"                              . . 6 6 6 & . . . . 5 6 6 6 6 O X . < 6 6 6 6 < 6 6 6 6 6 . .                                     ",
"                              . . 6 6 6 & . . . 4 6 6 < > . . X 6 < < < < < 4 6 6 6 6 . . .                                     ",
"                              . . 6 5 5 5 * . o 4 4 % . . . . . . . . . . . o 4 5 5 5 . .                                       ",
"                              . . 5 5 5 5 5 < 4 5 4 @ . . . . . . . . . . . . < 5 5 5 . .                                       ",
"                              . . 4 5 5 5 4 4 4 4 4 4 4 X X . X 4 4 X X X X X < 4 4 4 . .                                       ",
"                              . . 4 4 4 4 4 4 4 4 4 4 4 4 4 & # @ 4 4 4 4 4 4 4 4 4 4 . .                                       ",
"                              . . . 4 4 4 4 4 4 4 4 4 4 4 4 4 4 < 4 4 4 4 4 4 4 4 4 . . .                                       ",
"                                . . 4 4 4 4 4 4 4 4 4 4 4 4 4 4 4 4 4 4 4 4 4 4 4 4 . .                                         ",
"                                . . < < < < < 3 < < < < < < < < < 1 < < 2 < < < < < . .                                         ",
"                                . . < < < < < < < < < < < < < < < < < < < < < < < < . .                                         ",
"                                . . < < < < < < < < < < < < < < < < < < < < < < < . . .                                         ",
"                                . . . . . . . . . . . . . . . . . . . . . . . . . . .                                           ",
"                                . . . . . . . . . . . . . . . . . . . . . . . . . . .                                           ",
"                                                                                                                                ",
"                                                                                                                                ",
"                                                                                                                                ",
"                                                                                                                                ",
"                                                                                                                                ",
"                                                                                                                                ",
"                                                                                                                                ",
"                                                                                                                                ",
"                                                                                                                                "
};
