/* XPM */
static char *_7a3e168436a4295bd1e40eb3e5d9f1aUYuRaFumWcYVinGR[] = {
/* columns rows colors chars-per-pixel */
"64 64 235 2 ",
"   c None",
".  c black",
"X  c #010000",
"o  c #010101",
"O  c #020000",
"+  c #030000",
"@  c #020101",
"#  c #030101",
"$  c #030202",
"%  c #040000",
"&  c #040101",
"*  c #050101",
"=  c #060101",
"-  c #070101",
";  c #050303",
":  c #060404",
">  c #080101",
",  c #0A0101",
"<  c #080202",
"1  c #090202",
"2  c #090303",
"3  c #0A0202",
"4  c #0B0202",
"5  c #0C0202",
"6  c #0D0202",
"7  c #0C0303",
"8  c #0D0303",
"9  c #0E0202",
"0  c #0E0303",
"q  c #0F0303",
"w  c #090505",
"e  c #090606",
"r  c #0A0606",
"t  c #0B0707",
"y  c #0F0404",
"u  c #100303",
"i  c #110303",
"p  c #130303",
"a  c #150303",
"s  c #110404",
"d  c #120404",
"f  c #130404",
"g  c #120505",
"h  c #140404",
"j  c #150404",
"k  c #140505",
"l  c #150505",
"z  c #160404",
"x  c #170404",
"c  c #170505",
"v  c #170606",
"b  c #160707",
"n  c #1A0303",
"m  c #1B0303",
"M  c #180404",
"N  c #190404",
"B  c #180505",
"V  c #190505",
"C  c #1A0404",
"Z  c #1B0404",
"A  c #1A0505",
"S  c #1B0505",
"D  c #190606",
"F  c #180707",
"G  c #1B0606",
"H  c #1C0404",
"J  c #1D0404",
"K  c #1C0505",
"L  c #1D0505",
"P  c #1E0404",
"I  c #1E0505",
"U  c #1F0505",
"Y  c #1C0606",
"T  c #1D0606",
"R  c #1C0707",
"E  c #1D0707",
"W  c #1E0606",
"Q  c #1F0606",
"!  c #1E0707",
"~  c #1F0707",
"^  c #100808",
"/  c #100A0A",
"(  c #170909",
")  c #120C0C",
"_  c #130C0C",
"`  c #140D0D",
"'  c #160E0E",
"]  c #180808",
"[  c #190909",
"{  c #1B0808",
"}  c #1D0808",
"|  c #1F0808",
" . c #1F0909",
".. c #1E0B0B",
"X. c #1F0B0B",
"o. c #1A0E0E",
"O. c #1C0C0C",
"+. c #1E0C0C",
"@. c #1E0D0D",
"#. c #1A1010",
"$. c #1A1111",
"%. c #1B1111",
"&. c #1D1212",
"*. c #1D1313",
"=. c #1E1313",
"-. c #1F1313",
";. c #200505",
":. c #210505",
">. c #220505",
",. c #200606",
"<. c #210606",
"1. c #200707",
"2. c #210707",
"3. c #220606",
"4. c #220707",
"5. c #230707",
"6. c #240606",
"7. c #250606",
"8. c #240707",
"9. c #250707",
"0. c #260606",
"q. c #260707",
"w. c #270707",
"e. c #280707",
"r. c #290707",
"t. c #2E0707",
"y. c #200808",
"u. c #200909",
"i. c #210909",
"p. c #220808",
"a. c #220909",
"s. c #230909",
"d. c #200A0A",
"f. c #210A0A",
"g. c #200B0B",
"h. c #210B0B",
"j. c #220A0A",
"k. c #230A0A",
"l. c #220B0B",
"z. c #230B0B",
"x. c #240808",
"c. c #250808",
"v. c #240909",
"b. c #250909",
"n. c #260808",
"m. c #270808",
"M. c #260909",
"N. c #270909",
"B. c #240A0A",
"V. c #250A0A",
"C. c #240B0B",
"Z. c #250B0B",
"A. c #260A0A",
"S. c #270A0A",
"D. c #260B0B",
"F. c #270B0B",
"G. c #210D0D",
"H. c #220C0C",
"J. c #230C0C",
"K. c #230D0D",
"L. c #210F0F",
"P. c #220E0E",
"I. c #240C0C",
"U. c #250C0C",
"Y. c #250D0D",
"T. c #260C0C",
"R. c #270C0C",
"E. c #260D0D",
"W. c #270D0D",
"Q. c #260E0E",
"!. c #270E0E",
"~. c #280808",
"^. c #290808",
"/. c #280909",
"(. c #290909",
"). c #2A0808",
"_. c #2B0808",
"`. c #2A0909",
"'. c #2B0909",
"]. c #290A0A",
"[. c #280B0B",
"{. c #290B0B",
"}. c #2A0A0A",
"|. c #2B0A0A",
" X c #2A0B0B",
".X c #2B0B0B",
"XX c #2C0808",
"oX c #2C0909",
"OX c #2E0909",
"+X c #2C0A0A",
"@X c #2C0B0B",
"#X c #2D0B0B",
"$X c #280C0C",
"%X c #290C0C",
"&X c #280D0D",
"*X c #290D0D",
"=X c #2A0D0D",
"-X c #2B0D0D",
";X c #280E0E",
":X c #290E0E",
">X c #280F0F",
",X c #2A0E0E",
"<X c #2B0E0E",
"1X c #2C0C0C",
"2X c #2D0D0D",
"3X c #2E0D0D",
"4X c #2C0E0E",
"5X c #310808",
"6X c #300909",
"7X c #330909",
"8X c #310A0A",
"9X c #330A0A",
"0X c #320B0B",
"qX c #300C0C",
"wX c #310D0D",
"eX c #211010",
"rX c #201313",
"tX c #241010",
"yX c #251111",
"uX c #271111",
"iX c #251313",
"pX c #261212",
"aX c #271313",
"sX c #201414",
"dX c #221414",
"fX c #231414",
"gX c #241414",
"hX c #251414",
"jX c #261414",
"kX c #271414",
"lX c #291010",
"zX c #281313",
"xX c #2B1313",
"cX c #281414",
"vX c #F4F095",
/* pixels */
"                                                                                                                                ",
"                                                                                                                                ",
"                                                                                                                                ",
"                            . . . . . . . . .                         . . . .                                                   ",
"                        . . . . . . . . . . . .                 . . . . . . . . .                                               ",
"                      . . . . vXvXvXvXvXvXvX. . .             . . . . . vXvX. . . .                                             ",
"                      . . vXvXvXvX. . vXvXvXvX. . .           . . vXvXvX. vXvXvX. . .                                           ",
"                    . . . vXvXvX. . . vXvXvXvXvX. .           . . vXvX. . . vXvXvX. . .                                         ",
"                    . . vXvXvXvX. . . vXvXvXvXvX. .           . . vXvX. . . vXvXvXvX. .                                         ",
"                    . . vXvXvXvX. . . vXvXvXvXvX. . .         . . vXvX. . . vXvXvXvX. .                                         ",
"                    . . vXvXvXvX. . . vXvXvXvXvXvX. .     . . . . vXvX. . . vXvXvXvX. .                                         ",
"                    . . . vXvXvX. . . vXvXvXvXvXvX. .     . . . . vXvX. . . vXvXvXvX. .                                         ",
"                      . . vXvXvX. . . vXvXvXvXvX. . .     . . . . . vXvXvXvXvXvXvX. . .                                         ",
"                      . . vXvXvX. . vXvXvXvX. . . .     . . . . . . . vXvXvX. . . . . .                                         ",
"            .         . . . . vXvXvXvX. . . . . .   . . . . . . . . . . . . . . . .     . . . . . .                             ",
"          . . .         . . . . . vX. . . . .     . . . .           . . . . .         . . . . . . . .                           ",
"            . . .           . . . . . . . .     . . .                 . . . .         . . vXvXvXvX. . .                         ",
"              . . .             . . . . . . . . . .           . . . . . . . .       . . . vX. . vXvX. . .                       ",
"                . .           . . . . . . . . . . .     . . . . . . . . . . .       . . vXvX. . vXvXvX. .                       ",
"                . .         . . . . . . . . . . . . . . . . . . . . . . . .         . . vXvX. . vXvXvX. .                       ",
"                . . .     . . . . . . . . . . . . . . . . . . . . . . . . . . . .   . . vXvX. . vXvXvX. .                       ",
"                  . . .   . . . .     . . . . . . . . . . . . . . /./.. . . . . . . . . vXvXvXvXvXvXvX. .                       ",
"            . . . . . . . . . . .     . . . . D . . . . . . . . . . N././.@X      . . . . . . vXvXvXvX. .                       ",
"          . . . . . . . . . . . . .     . . . D . . . . . . /.N.. . . N.N././.  . . . . . . . . vX. . . .                       ",
"          . . . .     . . .     . .   . . . . E . . . . . . /.. . . . . . . . . . . . .     . . . . . .                         ",
"          . . . .       . .     . . . . . . . ;.. . . . . /.. . . . . . . . . . . .                                             ",
"          . . . . .     . .     . . . . . . . 7.7.. . . . . . . . . . . . . . . . . .                                           ",
"          . .   . .     . . .   . . . . . . N././.. . . . . . . . . . . /./././.. . . . .                                       ",
"          . .   . . .     . . . . . . . . /././.@X. . . . . . . . . . . N.N.N.. . .   . . . . .                                 ",
"          . . .   . . .     . . . . . . . . . /.@X0X. . . . . . . . . . . j.. . . N.. . . . . . .                               ",
"            . .     . .       . . . . . . . . . . . . . . . . . 0X0X0X. . . . . j.j.. .                                         ",
"          . . .     . .       . . . . . . . . . . . . . . . . . . 0Xt.e.. . . . j.j.. . .                                       ",
"        . . .       . . E.    . . . . . . . . . . @XqXqX. . . . . . e.;.. . . /.N.N.. . . . . .                                 ",
"      . . .         . . . E.  . . . . . . . . . . . . 1X@X. . . . . 7.;.. . . . /./.. . . . . . .                               ",
"    . . .             . . E.  . . 1X%XN.. . . . . . . . %X. . . . . . . . . . . . . . . . . . . . . . .                         ",
"                      H.N.N.  . . 1X/.N.j.. . . . . . . . . . . . . . . . E D . . . . N.N.N.. . . . . . . .                     ",
"                      j.N./.. . . /./.N.j.. . . . . . . . . . . . . . . . . . . . . . . N.N.j.j.j.j.N.. . . .                   ",
"                        %X. . . . %X%XN.. . . j.N.. . . . . . . . . . . . . . . E } j.j.N.N.j.j.j.j.j.E./.. . .                 ",
"                        . . . . . E.N.N.. . j.j.E.. . . . . . . [ [ . . . . . . . . . . . . j.j.j.j.j.j.E.%X. . .               ",
"                              . . . H.j.. . } } j.N.. . . . . . j.} } } . . . . . . . . . . . . N.j.. . j.N.. . . .             ",
"                                . . j.j.. . . } H.H.. . . E.. . . . . j.. . . . . . . ;.j.. . . . . . . . N.. .                 ",
"                                . . . j.j.. . j.H.N.E.. . %X%XN.. . . . . . . . . . . . N.N.j.. . . . E.E.E.. . .               ",
"                                  . . j.j.. . . j.j.E.. . . j.;.E . . . . . . . . 7.. . /.N.N.. . j.j.E.%X%X%X. . . .           ",
"                                  . . . j.} . . . j.j.j.. . . E E . . E E . . E ;.7.. . 0X@X/.. . N.N.%X%X%X1X%X. . . .         ",
"                                  . . . . E E . . . j.} } . . . . . . E n . . . ;./.. . . 0X/.. . . . %X%X%X%X%X    . .         ",
"                                  . . . . E E E . . E E E ;.. . . . E E . . . . ;.N./.. . @X@X@X. . . . . E.E.%X    . . .       ",
"                                  . . . . . n D E E E E E ;.. . . . ;.E . . . . E 7.7.. . /./.@X@X/.. . . . H.H.      . . .     ",
"                                . . . zX. . z D D E E E E E . . . . E ;.E E . . D ;.7.. . . /././././.N.. . H.H.                ",
"                                . . zXaX. . z D E E E E E . . . E E E E H . . . E E ;.7.. . . . . /./.N.. . .                   ",
"                                . . zXaX. . z D E E E E . . . E E D D D D . . ;.E E E 7.N.. . . . . 7.7.;.. .                   ",
"                                . . zXaX. . z z D E E E . . E E E E D D D . . . 7.j.;.;.7./././././.7.;.E . .                   ",
"                                . . . zX. . O.D z D E E . . E E ;.E E E E ;.. . 7.N.;.E E 7.7.7.7.7.;.E E . . . .               ",
"                                    hXaXzXaXaXO.[ z z D . . E E E E E ;.;.;.. . . . N.E D z D D E E E E D D . . . . .           ",
"                                    hXhXcXzXzXaXO.z p p . . . E E D E ;.7.N.N.. . . . E z 9 2 9 d z z D D E . . . . . .         ",
"                                  -.rXfXhXhXaXaXH.[ d 9 p . . ;.E E E ;.N././.7.N.. . . . 9 ; . ; 2 9 d a D . . E E z 9 ;       ",
"                                _ $.-.-.fXfXhXaXrX( y 9 9 . . . . . E ;.N././.N.j.} E . . . . . . . . ; 9 p . . . z d 2 ;       ",
"                            . . t ` $.-.-.fXrXrXo./ 2 ; 2 9 . . . . . . ;.N.N.j.E E D D . . . . . . . . ; 2 p . . d 9 2 . .     ",
"                        . . . . . t ` $.-.-.-.$._ t . . . ; 9 d z . . . . ;.j.E D D D z d 2 ; . . . . . ; 2 9 . . . 9 ; . .     ",
"                      . . . . . . . t / ` ` ` / t . . . . . ; 2 9 p d d z z z z d d d 9 9 ; . . . . . . . ; 2 9 . . . ; .       ",
"                . . . . . . . .   . . ; t t t : . . . . . . . ; ; 2 2 2 2 2 ; 2 2 2 2 ; ; . . . . . . . . . ; ; 2 . . .         ",
"              . . . . . . . .       . . . . . . . .     . .       . . .     . . . . . . . .     . . . . . . . . . . . . .       ",
"                . . . . .                       .                   .         . . .                     . . . . . . . . .       ",
"                                                                                .                             . . . . .         ",
"                                                                                                                                "
};
