/* XPM */
static char *e47a463d07924d73a5f2e646cfd1d5d4x15PdokWd3xFDTQc[] = {
/* columns rows colors chars-per-pixel */
"64 64 120 2 ",
"   c gray1",
".  c #060403",
"X  c #040404",
"o  c #060803",
"O  c #0F0D03",
"+  c #0B0B0B",
"@  c #141204",
"#  c #171505",
"$  c #13100B",
"%  c #17110D",
"&  c #15120C",
"*  c #1A160F",
"=  c #101010",
"-  c #151515",
";  c #1D1411",
":  c #1F1612",
">  c #1D1810",
",  c #1D1D1D",
"<  c #19240D",
"1  c #2A2418",
"2  c #2E271B",
"3  c #293A16",
"4  c #2C3D17",
"5  c gray14",
"6  c #2F2F2F",
"7  c #372620",
"8  c #3F3F3F",
"9  c #432F28",
"0  c #47322A",
"q  c #504912",
"w  c #5B4D34",
"e  c #6A5A3D",
"r  c #496727",
"t  c #4A6827",
"y  c #4F6F2A",
"u  c #52752C",
"i  c #55782D",
"p  c #587B2E",
"a  c #587C2F",
"s  c #444444",
"d  c gray29",
"f  c gray31",
"g  c gray32",
"h  c #5F5F5F",
"j  c #795548",
"k  c #7D584A",
"l  c #746243",
"z  c #7D6948",
"x  c #6F6F6F",
"c  c #86714D",
"v  c #8B7651",
"b  c #917B54",
"n  c #5D8331",
"m  c #5F8532",
"M  c #679036",
"N  c #6B9739",
"B  c #74A23D",
"V  c #75A53E",
"C  c #7EB143",
"Z  c #8E8421",
"A  c #9F9625",
"S  c #A79A27",
"D  c #B4A62A",
"F  c #BFB02C",
"G  c #C8B82E",
"H  c #CDBF30",
"J  c #EDDE37",
"K  c #E3D638",
"L  c #E6DA39",
"P  c #F1E238",
"I  c #F2E63D",
"U  c #FAE639",
"Y  c #FFEB3B",
"T  c #FFED3B",
"R  c #FFF23C",
"E  c #FFF53D",
"W  c #998158",
"Q  c #80B344",
"!  c #80B444",
"~  c #81B544",
"^  c #DCBA7F",
"/  c #87C14A",
"(  c #8AC249",
")  c #8BC44A",
"_  c #8CC44A",
"`  c #8FC94C",
"'  c #97C748",
"]  c #CFD941",
"[  c #868686",
"{  c #888888",
"}  c gray56",
"|  c #939393",
" . c #9B9B9B",
".. c #9D9D9D",
"X. c #A2A2A2",
"o. c #A5A5A5",
"O. c #AAAAAA",
"+. c #AFAFAF",
"@. c #D8BE93",
"#. c #DDC397",
"$. c #E5C285",
"%. c #E8C486",
"&. c #ECCA88",
"*. c #EECB8A",
"=. c #F0CB8B",
"-. c #F1CC8B",
";. c #F1CC8C",
":. c #F4CE8D",
">. c #F7D18F",
",. c #F1CF94",
"<. c #F8D290",
"1. c #F1D098",
"2. c #F6DEB9",
"3. c #C3C3C3",
"4. c #E7E7E7",
"5. c #E9E9E9",
"6. c gray93",
"7. c gray97",
"8. c #F9F9F9",
"9. c #FEFEFE",
/* pixels */
"7.7.7.7.7.7.7.7.7.7.7.7.7.7.7.7.7.7.7.7.7.7.7.7.7.7.7.7.7.7.7.7.7.7.7.7.7.7.7.7.7.7.7.7.7.7.7.7.7.7.7.7.7.7.7.7.7.7.7.7.7.7.7.7.",
"7.7.7.7.7.7.7.7.7.7.7.7.7.7.7.7.7.7.7.7.7.7.7.7.7.7.7.7.7.7.7.7.7.7.7.7.7.7.7.7.7.7.7.7.7.7.7.7.7.7.7.7.7.7.7.7.7.7.7.7.7.7.7.7.",
"7.7.7.7.7.7.7.7.7.7.7.7.7.7.7.7.7.7.7.7.7.7.7.7.9.9.9.9.9.9.9.9.9.9.9.9.9.9.9.9.7.7.7.7.7.7.7.7.7.7.7.7.7.7.7.7.7.7.7.7.7.7.7.7.",
"7.7.7.7.7.7.7.7.7.7.7.7.7.7.7.7.7.7.7.7.7.7.7.9.                                9.7.7.7.7.7.7.7.7.7.7.7.7.7.7.7.7.7.7.7.7.7.7.7.",
"7.7.7.7.7.7.7.7.7.7.7.7.7.7.7.7.7.7.7.7.7.7.7.9.                                9.7.7.7.7.7.7.7.7.7.7.7.7.7.7.7.7.7.7.7.7.7.7.7.",
"7.7.7.7.7.7.7.7.7.7.7.7.7.7.7.7.7.7.7.7.7.  X X     p ( ( ( ( ( ( ( ( ( ( m     X X   8.7.7.7.7.7.7.7.7.7.7.7.7.7.7.7.7.7.7.7.7.",
"7.7.7.7.7.7.7.7.7.7.7.7.7.7.7.7.7.7.7.7.7.          a ( ( ( ( ( ( ( ( ( ( m           8.7.7.7.7.7.7.7.7.7.7.7.7.7.7.7.7.7.7.7.7.",
"7.7.7.7.7.7.7.7.7.7.7.7.7.7.7.7.7.7.3.3.3.      4 4 M ( ( ( ( ( ( ( ( ( ( N 4 4       3.3.3.7.7.7.7.7.7.7.7.7.7.7.7.7.7.7.7.7.7.",
"7.7.7.7.7.7.7.7.7.7.7.7.7.7.7.7.7.7.-           ( ( ( ( ( ( ( ( ( ( ( ( ( ( ( (           = 7.7.7.7.7.7.7.7.7.7.7.7.7.7.7.7.7.7.",
"7.7.7.7.7.7.7.7.7.7.7.7.7.7.7.7.7.7.-           ( ( ( ( ( ( ( ( ( ( ( ( ( ( ( (           = 7.7.7.7.7.7.7.7.7.7.7.7.7.7.7.7.7.7.",
"7.7.7.7.7.7.7.7.7.7.7.7.7.7.7.x           ) _ _ ( ( ( ( ( ( ( ( ( ( ( ( ( ( ( ( ( ( )           h 7.7.7.7.7.7.7.7.7.7.7.7.7.7.7.",
"7.7.7.7.7.7.7.7.7.7.7.7.7.7.7.x           _ ( ( ( ( ( ( ( ( ( ( ( ( ( ( ( ( ( ( ( ( (           h 7.7.7.7.7.7.7.7.7.7.7.7.7.7.7.",
"7.7.7.7.7.7.7.7.7.7.7.7.7.7.7.x     n n n u u t ] ] ] ] ] ] ] ] ] ] ] ] ] ] ] ] r u u n n n     h 7.7.7.7.7.7.7.7.7.7.7.7.7.7.7.",
"7.7.7.7.7.7.7.7.7.7.7.7.7.7.7.x     / ( (       Y Y Y Y Y Y Y Y Y Y Y Y Y Y Y Y       ( ( (     h 7.7.7.7.7.7.7.7.7.7.7.7.7.7.7.",
"7.7.7.7.7.7.7.7.7.7.7.7.7.7.7.x     ( ( _       Y Y Y Y Y Y Y Y Y Y Y Y Y Y Y Y       ( ) (     h 7.7.7.7.7.7.7.7.7.7.7.7.7.7.7.",
"7.7.7.7.7.7.7.7.7.7.7.7.7.7.7.x           Y Y Y Y Y Y Y Y Y Y Y Y Y Y Y Y Y Y Y Y Y Y           h 7.7.7.7.7.7.7.7.7.7.7.7.7.7.7.",
"7.7.7.7.7.7.7.7.7.7.7.7.7.7.7.x           Y Y Y Y Y Y Y Y Y Y Y Y Y Y Y Y Y Y Y Y Y Y           h 7.7.7.7.7.7.7.7.7.7.7.7.7.7.7.",
"7.7.7.7.7.7.7.7.7.7.7.7.8.f f 5     G H H Y Y R q q F Y Y Y Y Y Y Y Y Y Y G q q R Y Y H G G     , f f 8.7.7.7.7.7.7.7.7.7.7.7.7.",
"7.7.7.7.7.7.7.7.7.7.7.7.8.          U Y Y Y Y R     S Y Y Y Y Y Y Y Y Y Y D     E Y Y Y Y U           8.7.7.7.7.7.7.7.7.7.7.7.7.",
"7.7.7.7.7.7.7.8.8.8.8.8.9.          U Y Y T R R     S Y Y Y Y Y Y Y Y T R D     E R R Y Y U           9.8.8.8.8.8.7.7.7.7.7.7.7.",
"7.7.7.7.7.7.7.                      U Y Y       Y Y Y Y Y Y Y Y Y Y P                 Y Y U                       7.7.7.7.7.7.7.",
"7.7.7.7.7.7.7.                      U Y Y       Y Y Y Y Y Y Y Y Y Y P                 Y Y U                       7.7.7.7.7.7.7.",
"7.7.7.7.7.7.7.      >.>.>.>.>.e           R R R Y Y Y Y Y Y Y T           c >.>.      Y Y U     w >.>.>.>.>.      7.7.7.7.7.7.7.",
"7.7.7.7.7.7.7.      =.=.=.*.*.e           Y Y Y Y Y Y Y Y Y Y T           c =.=.      Y Y U     w *.*.*.=.=.      7.7.7.7.7.7.7.",
"7.7.7.7.7.7.7.= , , %.%.%.%.$.e           Y Y Y Y Y U U U U U U       * > b =.=.      Y Y U     w $.%.%.$.$., , = 7.7.7.7.7.7.7.",
"7.7.7.7.7.7.7.7.7.7.                      Y Y Y Y Y Z               * *.=.=.=.=.      Y Y U                 7.7.7.7.7.7.7.7.7.7.",
"7.7.7.7.7.7.7.7.7.7.                      Y Y Y Y Y Z               * =.=.*.*.=.      Y Y U                 7.7.7.7.7.7.7.7.7.7.",
"7.7.7.7.7.7.7.7.7.7.8.8.8.    Z T T #                           :.;.%.                    O T T A     8.8.8.7.7.7.7.7.7.7.7.7.7.",
"7.7.7.7.7.7.7.7.7.7.7.7.8.    Z Y Y @                           -.*.%.                    @ Y Y A     8.7.7.7.7.7.7.7.7.7.7.7.7.",
"7.7.7.7.7.7.7.7.7.7.7.7.8.    Z Y Y @     6 6 6           1 2 2 -.*.%.          6 6 6     @ Y Y A     8.7.7.7.7.7.7.7.7.7.7.7.7.",
"7.7.7.7.7.7.7.7.7.7.7.7.8.    Z Y Y @     9.9.9.          $.*.*.*.*.%.          9.9.9.    @ Y Y A     8.7.7.7.7.7.7.7.7.7.7.7.7.",
"7.7.7.7.7.7.7.7.7.7.7.7.8.    Z Y Y @     9.9.9.          $.*.*.*.*.%.          9.9.9.    @ Y Y A     8.7.7.7.7.7.7.7.7.7.7.7.7.",
"7.7.7.7.7.7.7.7.7.7.7.7.8.                *.*.>.    X.9.9.1.=.=.=.=.,.9.9.+.    <.=.*.                8.7.7.7.7.7.7.7.7.7.7.7.7.",
"7.7.7.7.7.7.7.7.7.7.7.7.8.                *.*.>.    X.9.9.1.=.=.=.=.,.9.9.+.    <.=.*.                8.7.7.7.7.7.7.7.7.7.7.7.7.",
"7.7.7.7.7.7.7.7.7.7.7.7.7.O.O.d           z z l W W @.2.2.*.*.*.=.=.;.2.2.#.W W l z z           8 O.O.7.7.7.7.7.7.7.7.7.7.7.7.7.",
"7.7.7.7.7.7.7.7.7.7.7.7.7.7.7.x                 *.=.=.=.=.*.*.*.=.=.=.=.=.*.*.*.                h 7.7.7.7.7.7.7.7.7.7.7.7.7.7.7.",
"7.7.7.7.7.7.7.7.7.7.7.7.7.7.7.x                 =.=.-.-.-.=.-.-.-.-.-.-.-.=.-.-.                h 7.7.7.7.7.7.7.7.7.7.7.7.7.7.7.",
"7.7.7.7.7.7.7.7.7.7.7.7.7.7.7.7.7.7.-                                                     = 7.7.7.7.7.7.7.7.7.7.7.7.7.7.7.7.7.7.",
"7.7.7.7.7.7.7.7.7.7.7.7.7.7.7.7.7.7.-                                                     = 7.7.7.7.7.7.7.7.7.7.7.7.7.7.7.7.7.7.",
"7.7.7.7.7.7.7.7.7.7.7.7.7.7.7...g g B V V       V V V V V V V V V V V V V V V V       V V B g g | 7.7.7.7.7.7.7.7.7.7.7.7.7.7.7.",
"7.7.7.7.7.7.7.7.7.7.7.7.7.7.7.x     / ( (       ( ( ( ( ( ( ( ( ( ( ( ( ( ( ( (       ( ( /     h 7.7.7.7.7.7.7.7.7.7.7.7.7.7.7.",
"7.7.7.7.7.7.7.7.7.7.7.7.7.9.9.x     / ( (       ( ( ( ( ( ( ( ( ( ( ( ( ( ( ( (       ( ( /     h 9.9.7.7.7.7.7.7.7.7.7.7.7.7.7.",
"7.7.7.7.7.7.7.7.7.7.7.7.8.    y ( ( ( ( (       ( ( ( ( ( ( ( ( ( ( ( ( ( ( ( (       ( ( ( ( ( a     8.7.7.7.7.7.7.7.7.7.7.7.7.",
"7.7.7.7.7.7.7.7.7.7.7.7.8.    y ( ( ( ( (       ( ( ( ( ( ( ( ( ( ( ( ( ( ( ( (       ( ( ( ( ( a     8.7.7.7.7.7.7.7.7.7.7.7.7.",
"7.7.7.7.7.7.7.7.7.7.+ + + ;.;.*.*.*.& . .       ( _ ( _ ( ( ( ( ( ( _ ( ( ( ( (       o o & *.*.*.=.=.+ + + 7.7.7.7.7.7.7.7.7.7.",
"7.7.7.7.7.7.7.7.7.7.      =.=.=.*.*.&           ( ( ( ( ( ( ( ( ( ( ( _ ( ( ( (           $ =.=.*.*.*.      7.7.7.7.7.7.7.7.7.7.",
"7.7.7.7.7.7.7.7.7.7.      ^ ^ $.*.*.&     < < < ~ ~ ~ ~ ~ ' ' ' ' ' ' ~ ~ ~ ~ ~ < < <     $ =.=.%.^ ^       7.7.7.7.7.7.7.7.7.7.",
"7.7.7.7.7.7.7.7.7.7.          v *.*.&     _ ( `           J Y Y Y Y P           ` ( _     $ =.=.W           7.7.7.7.7.7.7.7.7.7.",
"7.7.7.7.7.7.7.7.7.7.          v *.*.&     ( ( `           J Y Y Y Y P           ` ( (     $ *.*.W           7.7.7.7.7.7.7.7.7.7.",
"7.7.7.7.7.7.7.7.7.7.8.8.9.                ( ( ( _ _ u     J Y Y Y Y P     y _ _ ( ( (                 8.8.8.7.7.7.7.7.7.7.7.7.7.",
"7.7.7.7.7.7.7.7.7.7.7.7.8.                _ ( ( ( ( u     J Y Y Y Y P     y ( ( ( ( _                 8.7.7.7.7.7.7.7.7.7.7.7.7.",
"7.7.7.7.7.7.7.7.7.7.7.7.8.s s s s s .     C C C C C a 3 3 K I I I I L 3 3 i C C C C Q     . s s s s s 8.7.7.7.7.7.7.7.7.7.7.7.7.",
"7.7.7.7.7.7.7.7.7.7.7.7.7.7.7.7.7.7.-               i ( ( ( ( ( ( ( ( ( ( m               = 7.7.7.7.7.7.7.7.7.7.7.7.7.7.7.7.7.7.",
"7.7.7.7.7.7.7.7.7.7.7.7.7.7.7.7.7.7.-               i ( ( ( ( ( ( ( ( ( ( m               = 7.7.7.7.7.7.7.7.7.7.7.7.7.7.7.7.7.7.",
"7.7.7.7.7.7.7.7.7.7.7.7.7.7.7.x     j j j j j j j j 0                     9 j j j j j j j j     h 7.7.7.7.7.7.7.7.7.7.7.7.7.7.7.",
"7.7.7.7.7.7.7.7.7.7.7.7.7.7.7.x     j j j j j j j j 0                     9 j j j j j j j j     h 7.7.7.7.7.7.7.7.7.7.7.7.7.7.7.",
"7.7.7.7.7.7.7.7.7.7.7.7.7.7.7.x     j j j j j j 7 7 :     [ } } } } {     : 7 7 j j j j j j     h 7.7.7.7.7.7.7.7.7.7.7.7.7.7.7.",
"7.7.7.7.7.7.7.7.7.7.7.7.7.7.7.x     j j j j j k           5.7.7.7.7.6.          k j j j j j     h 7.7.7.7.7.7.7.7.7.7.7.7.7.7.7.",
"7.7.7.7.7.7.7.7.7.7.7.7.7.7.7.x     j j j j j k           5.7.7.7.7.6.          k j j j j j     h 7.7.7.7.7.7.7.7.7.7.7.7.7.7.7.",
"7.7.7.7.7.7.7.7.7.7.7.7.7.7.7.7.7.7.-                .7.7.7.7.7.7.7.7.7.7.o.              = 7.7.7.7.7.7.7.7.7.7.7.7.7.7.7.7.7.7.",
"7.7.7.7.7.7.7.7.7.7.7.7.7.7.7.7.7.7.-                .7.7.7.7.7.7.7.7.7.7.o.              = 7.7.7.7.7.7.7.7.7.7.7.7.7.7.7.7.7.7.",
"7.7.7.7.7.7.7.7.7.7.7.7.7.7.7.7.7.7.4.4.4.4.4.4.4.4.6.7.7.7.7.7.7.7.7.7.7.6.4.4.4.4.4.4.4.4.7.7.7.7.7.7.7.7.7.7.7.7.7.7.7.7.7.7.",
"7.7.7.7.7.7.7.7.7.7.7.7.7.7.7.7.7.7.7.7.7.7.7.7.7.7.7.7.7.7.7.7.7.7.7.7.7.7.7.7.7.7.7.7.7.7.7.7.7.7.7.7.7.7.7.7.7.7.7.7.7.7.7.7.",
"7.7.7.7.7.7.7.7.7.7.7.7.7.7.7.7.7.7.7.7.7.7.7.7.7.7.7.7.7.7.7.7.7.7.7.7.7.7.7.7.7.7.7.7.7.7.7.7.7.7.7.7.7.7.7.7.7.7.7.7.7.7.7.7."
};
