/* XPM */
static char *c0d9d687f7464601816f6cfb0798a171bk18SVNwbhdhoK8w[] = {
/* columns rows colors chars-per-pixel */
"64 64 5 1 ",
"  c None",
". c #221610",
"X c #462C1E",
"o c #07690F",
"O c #8E583C",
/* pixels */
"                                                                ",
"                                                                ",
"                                                                ",
"                oooooooo              ooooo                     ",
"               ooooooooooooo       ooooooooo                    ",
"                ooooooooooooo     oooooooooo                    ",
"                     oooooooooo  ooooooooooo                    ",
"                      ooooooooooooooooo                         ",
"               ooooooo  ooooooooooooo                           ",
"            ooooooooooooo oooooooooo  oooooooooooo              ",
"          ooooooooooooooooooooooooo oooooooooooooooooo          ",
"          oooooooooooooooooooooooooooooooooooooooooooooo        ",
"         oooooooooooo ooooooooooooooooooooooooooooooooooo       ",
"        oooooooooo   oooooooooooooooooo   oooooooooooooooo      ",
"       oooooooo    oooooooooooooooooo...        ooooooooooo     ",
"      ooooooo   oooooooooooooooooooo.....             ooooo     ",
"      ooooo   oooooooooooooOoooooooo......             oooo     ",
"      oooo   ooooooooooooo.O...ooooooo....              ooo     ",
"      ooo   oooooooooooo...O....ooooooo...                      ",
"          oooooooooooo.....O....ooooooo..                       ",
"         ooooooooooo.......X....oooooooo                        ",
"         ooooooooo ........X....oooooooo                        ",
"        ooooooooo  ........OO....oooooooo                       ",
"       ooooooooo    ......OOOO...oooooooo                       ",
"       ooooooooo     ....XOOOOOOOXoooooooo                      ",
"       oooooooo         XXXOOOOOXXoooooooo                      ",
"      oooooooo           XXXOOOOXXoooooooo                      ",
"      ooooooo            XXXXXXXXXXoooooooo                     ",
"      ooooooo          XXXXXXXXXXXXXooooooo                     ",
"      ooooooo         XXXXOOOOOOOOXXooooooo                     ",
"      oooooo          XXXOOOOOOOOOXX oooooo                     ",
"      oooooo           XXXOOOOOOOXXX oooooo                     ",
"       oooo             XXOOOOOOOXX    oooo                     ",
"       oooo             XXXOOOOOOXX     ooo                     ",
"                         XXXXXXXXXXX                            ",
"                        XXXXXXXXXXXXXX                          ",
"                       XXXXXXOOOOOOXXXX                         ",
"                       XXXOOOOOOOOOXXX                          ",
"                        XXOOOOOOOOXXX                           ",
"                        XXXOOOOOOOXX                            ",
"                         XXOOOOOOXXX                            ",
"                         XXXOOOOOXX                             ",
"                          XXXXXXXXXXX                           ",
"                        XXXXXXXXXXXXXXX                         ",
"                       XXXXOOOOOOOOOXXXX                        ",
"                       XXXOOOOOOOOOOXXX                         ",
"                        XXXOOOOOOOOXXX                          ",
"                         XXXOOOOOOOXX                           ",
"                          XXXOOOOOXXX                           ",
"                           XXOOOOXXX                            ",
"                         XXXXXXXXXXXXXX                         ",
"                        XXXXXXXXXXXXXXXX                        ",
"                        XXXOOOOOOOOOXXX                         ",
"                         XXXOOOOOOOXXX                          ",
"                          XXOOOOOOOXX                           ",
"                          XXOOOOOOXXX                           ",
"                          XXXOOOOXXX                            ",
"                           XXXXXXXX                             ",
"                           XXXXXXXX                             ",
"                                                                ",
"                                                                ",
"                                                                ",
"                                                                ",
"                                                                "
};
