/* XPM */
static char *db9a2d31ac994468d30134b62b3b99ad6WeIoQzuhpx8RrMZ[] = {
/* columns rows colors chars-per-pixel */
"64 64 148 2 ",
"   c None",
".  c #010000",
"X  c #180B00",
"o  c #190E0D",
"O  c #191918",
"+  c #282116",
"@  c #2C2418",
"#  c #342A1C",
"$  c #392E1E",
"%  c #3A2219",
"&  c #3A301F",
"*  c #242424",
"=  c #2C2C2C",
"-  c #3D3321",
";  c #333333",
":  c #3C3C3C",
">  c #43261E",
",  c #4B2A21",
"<  c #492222",
"1  c #542C26",
"2  c #542A28",
"3  c #5B2F2B",
"4  c #413623",
"5  c #4D3026",
"6  c #453925",
"7  c #493C27",
"8  c #4B3E28",
"9  c #56332C",
"0  c #5B3229",
"q  c #40353D",
"w  c #64352D",
"e  c #673A2F",
"r  c #663931",
"t  c #6D3A34",
"y  c #733C34",
"u  c #7D3D3B",
"i  c #4D402A",
"p  c #55472E",
"a  c #5E4E33",
"s  c #554433",
"d  c #7B5F2C",
"f  c #694C37",
"g  c #6B4639",
"h  c #774038",
"j  c #754337",
"k  c #7F6232",
"l  c #423C40",
"z  c #4C3D47",
"x  c #543146",
"c  c #5B3F51",
"v  c #3B4944",
"b  c #3C605A",
"n  c #434343",
"m  c #454847",
"M  c #444C4A",
"N  c #4C4C4C",
"B  c #43534E",
"V  c #4A524F",
"C  c #544850",
"Z  c #5A4B55",
"A  c #425551",
"S  c #4C5351",
"D  c #435A55",
"F  c #4C5A55",
"G  c #455F59",
"H  c #4B5E5A",
"J  c #535453",
"K  c #5A5257",
"L  c #5E5A53",
"P  c #5B5B5B",
"I  c #5B595B",
"U  c #7E5247",
"Y  c #604656",
"T  c #62575E",
"R  c #635F59",
"E  c #58625E",
"W  c #65615B",
"Q  c #675B62",
"!  c #5D6C6A",
"~  c #5C6864",
"^  c #48766D",
"/  c #636363",
"(  c #6B6561",
")  c #6C6963",
"_  c #676868",
"`  c #6C6C6C",
"'  c #706D68",
"]  c #75726D",
"[  c #617F7A",
"{  c #747473",
"}  c #797673",
"|  c #7B7974",
" . c #7B7B7B",
".. c #803F3B",
"X. c #83423E",
"o. c #82483F",
"O. c #99453E",
"+. c #8A6A38",
"@. c #876A33",
"#. c #DD7817",
"$. c #E27100",
"%. c #8B3F41",
"&. c #8D4C44",
"*. c #8C4743",
"=. c #924543",
"-. c #984447",
";. c #9F4947",
":. c #9D4648",
">. c #9A4F49",
",. c #855141",
"<. c #8F5146",
"1. c #905145",
"2. c #9B534C",
"3. c #A34B46",
"4. c #A8464F",
"5. c #A3554E",
"6. c #B54F51",
"7. c #A75050",
"8. c #B37A50",
"9. c #70827F",
"0. c #E68838",
"q. c #BD8C68",
"w. c #C58C6C",
"e. c #C09170",
"r. c #CD9F74",
"t. c #E69D66",
"y. c #C9A46E",
"u. c #CDA07D",
"i. c #837A81",
"p. c #7F9591",
"a. c #838383",
"s. c #8C8C8C",
"d. c #939393",
"f. c #9C9C9C",
"g. c #9E9E9E",
"h. c #999999",
"j. c #B09390",
"k. c #B79A95",
"l. c #A0A0A0",
"z. c #A2A2A2",
"x. c #A7A7A7",
"c. c #A4A4A4",
"v. c #AAAAAA",
"b. c #ACACAC",
"n. c #AEAEAE",
"m. c #B4B4B4",
"M. c #CBB2AF",
"N. c #E2C6C4",
/* pixels */
"                                                                                                                                ",
"                                                                                                                                ",
"                                                                                        ;                                       ",
"                                                                                      n * =                                     ",
"                              n J J N                                               : : =                                       ",
"                          N N ` { { / P n                                       : P n =                   n ;                   ",
"                        J _  .a. .{  .{ J N                                 = n _ a.n =                  .n ; J                 ",
"                        P a.{ ` { ` / a.` N :                       ; N / P : J d.` : ; ;             a._ n :                   ",
"                      N  .{ _ t.0.` _ _ { P ;                   n ; N  . .P ; : P _ J =             J ` J N                     ",
"                      { { _ #.o . $./ P { _ n               n P a.N n P s.J * O {  .:             J N N J P ;                   ",
"                      N.` / f X . s P N _ / J             n s.d. .: ; {  .N : : N n =           _ J ; J s.P n =                 ",
"                    N.M.P N J N n n n J P P J n         ` h.h./ n P ; J J { n * N { n :        .` : = d.a./ :                   ",
"                  r.y.k.j.P J N J J N P P P P :       _ x.z.{ J a._ * : { / = * ` a.n       ` s./ = n  .` J : *                 ",
"                  w.8.k @.P J N J J N N J N P n     n s.z. . .b.z.` ; ; n : * = P n ;     J a.s.n = : P n n n = :               ",
"                u.e.d   : N N J J J N N B n S n     { s.a.{ d.b.z.{ * ; / ` n ; N =     P a. .P J : n ; : N _ =                 ",
"                q.+.      N n N J N F ~ v M M n   P s.a.{ _ s.s._ n * : { { n ;       / { ` J N / = = : P _                     ",
"                          N l N S A F p.^ D B n J  .h.a._ s.s.J N J ; ; _ P : = ;   ` _ P N P _ N * ; P _ J N =                 ",
"                            Z i.N S H 9.b G A n J {  .P  .z./ P s.a.n : n : = J ` s.s.` : ;  . .: = n N J P J ; :               ",
"                            z c : M ! 9.G H n n n J n P d. .P  .d.n : n _ /  .a.d.z.d.: ; _ a.J n ; = n ` J N ;                 ",
"                              x Z P J ! B S m : n N P  . ._ / J n ` {  .s.h.h.h.f.a.J : : P { P N = ; J / P                     ",
"                              Z C T / _ V E J V N J _ _ n : ` { a.s.s.f.f.d.d.s._ N N : ; P P _ N = n P  ._ P                   ",
"                              K K Q ` { P ` P P / J P P P / s.s.b.b.f.h.d._ _ N P a._ n = {  ._ ; = N _ a.P                     ",
"                                _ / a.a./ ` ` /  . . .{ a.d.x.f.x.a.{ _ P P _ a.h.d.N n ; J _ P N = J P J                       ",
"                                _ ` a.d._ ` a.` s.z.s.f.z.h.z.s./ J _  .s.d.f.x.a._ N n = {  .P n ; : : P                       ",
"                                { a.x.z.a.a.d.a.{ d.s.h.d.d.d./ {  .d.d.s.s.` J _ { J ; = / { _ ; ; n ;                         ",
"                                ` a.b.b.s.s.b.h.{ s.d.d.d.a._ _ J {  .P N P  .s.v.{ ; * ;  ._ : * =                             ",
"                                _ s.v.m.f.a.b.f. . .s.a. .` N / P J J _ a.d.f.s. .n = * J _ N = = n J                           ",
"                                { h.x.b.z. .z.d.a.a.h.` _ J N P P ` ` a.a._ P / _ / : = ; N n = ; n                             ",
"                                P s.x.x.m.a.h. .` a.a.` / J P J N J P P / { a.z.v.` ; * : { / = *                               ",
"                                P a.v.f.x.{ a.d._ { _ J _ P R N J _ { { a.a.s.d. .N : ; P _ n =                                 ",
"                                /  .f.z.s.s. .h.`  .{ P J J J J N J J J P  .a.a.{ P N * n P n                                   ",
"                                / _ z.z.s.a.d. ._ a.d.s./ J N n : N / / {  . . .P N ; ; J n ;                                   ",
"                                P  .f.c.h.s.a.a.` _ a.d.a._ _ { N J N n n n N P n ; : ; n N                                     ",
"                                  { a.f.d.h. .a.a.P / { {  .` a.a.{ J n N : n J n ; = ;                                         ",
"                                  _ _ s.d.d.s.{ s.{ / a.s.{ _ P { a.{ { J _ I n ; ; ;                                           ",
"                                    _ {  . ._ ` _ / _  .a.h.d.a./ P _ { { P n n ; N J J                                         ",
"                                      _ { a.a._ `  . .J P { s.a.a./ P _ / / P P N J J P J                                       ",
"                                        ` ` a.s._ / {  ._ J N N J J P P _ _  .{ { ` P J J n         | | ]                       ",
"                                            a.s.{ _ P _ {  .N N P { _ J N / J _ / _ { _ / J n :       L L L                     ",
"                                            { a.{ _ _ P n n n n J _ { _ N N N n : J P / P J N N P N N                           ",
"                                            { a.{ / n N J : : : ; ; : N ; : : J n : ; n : n n n P J J P : +                     ",
"                                              } ( N N   P J = =   n : ; ; n ; ; N P N : ; : : : = ; : : n : :                   ",
"                                              U r %       / :         # n n J n N n J N N : n : : : ; = = = ; ;                 ",
"                                              ..2 >     - g 5 - a a   #           | : ; : ; = * ; n J J n : ; ; ;               ",
"                                              =.w >       r 9   ] }     # # +   a.} ] ) R     : = = = ; : n J P / N             ",
"                                              O.y , W } =.2 , }       6       L L ) R )                   : : = ;               ",
"                                          & . 3.y 1 2.7.t 9 & - a 7 $ |  .W                   - - -                             ",
"                                . . j - 7 4 3.;.w 1 *.t 3 r h o.&.1.. L     6 8 4 7 -   + + + + + + +   ] ]                     ",
"                                    0 t 5.  6.-.2 2   w w 0 e $ + . . &     7 - # 7 - 6       - + +   L L L                     ",
"                                      r u :.4...w y X.8 4 4 - & + + + @ # 6       + + + +                                       ",
"                          . . ,.<.2.>.=.u %.u w 1 1 y &.o R | } ' # # +               +                                         ",
"                                } 1 3 < X.&.w   8 , > . .   @ # -       R R )               L L                                 ",
"                              | }   + - 5.w 6 4   + +     6 6         6 @   L L R   #             L L                           ",
"                              L L L   o.w 6 - - # + + + @ # # & -       4 4 6 4 7 6 4                                           ",
"                                6 . . e # + - - #         # # @ @ +   # # # - # + + +                                           ",
"                          4 8 #   . 0       + + + +         + + +       + + + + + +                                             ",
"                                p i 6 6       +       } } |       | (                                                           ",
"                              # + + +                     ] | } '                                                               ",
"                                + +                       L L L                                                                 ",
"                                                                                                                                ",
"                                                                                                                                ",
"                                                                                                                                ",
"                                                                                                                                ",
"                                                                                                                                "
};
