/* XPM */
static char *b4739f8dd38f475eb10334b387316046UXHFybaKJvQzKUSU[] = {
/* columns rows colors chars-per-pixel */
"64 64 197 2 ",
"   c #010606",
".  c #0F0500",
"X  c #020905",
"o  c #020609",
"O  c #09040D",
"+  c #060A0A",
"@  c #0A0D0C",
"#  c #140500",
"$  c #10120F",
"%  c #070911",
"&  c #141413",
"*  c #151A17",
"=  c #1C201F",
"-  c #303431",
";  c #693606",
":  c #663C06",
">  c #6C3B05",
",  c #6C370D",
"<  c #69390E",
"1  c #653512",
"2  c #6C3613",
"3  c #6B3813",
"4  c #673819",
"5  c #6B3D1D",
"6  c #491830",
"7  c #7A2E26",
"8  c #762E2A",
"9  c #653D21",
"0  c #674201",
"q  c #785308",
"w  c #41443E",
"e  c #5A3974",
"r  c #4C4E48",
"t  c #525553",
"y  c #505178",
"u  c #6D6F6D",
"i  c #70726D",
"p  c #737574",
"a  c #893531",
"s  c #DF1F24",
"d  c #E21E23",
"f  c #D72325",
"g  c #D92223",
"h  c #85480F",
"j  c #844813",
"k  c #885A14",
"l  c #AF6F32",
"z  c #AE7030",
"x  c #E9673D",
"c  c #85385C",
"v  c #8F5B4C",
"b  c #B84E5E",
"n  c #886354",
"m  c #BB5973",
"M  c #9D7E71",
"N  c #A56266",
"B  c #C45678",
"V  c #DB677E",
"C  c #DBAC34",
"Z  c #DFAB39",
"A  c #D3B63D",
"S  c #E2AA39",
"D  c #E3B738",
"F  c #F0D13C",
"G  c #F5ED2E",
"H  c #EFEE37",
"J  c #F3ED36",
"K  c #F3EC3A",
"L  c #F9EC3C",
"P  c #F1F035",
"I  c #8C956C",
"U  c #D99853",
"Y  c #EA9E45",
"T  c #E69F49",
"R  c #EB9E4B",
"E  c #F29A4D",
"W  c #E29D53",
"Q  c #D7B046",
"!  c #DAA558",
"~  c #E6A245",
"^  c #E9A144",
"/  c #E1A841",
"(  c #E6A14A",
")  c #E8A14A",
"_  c #E4B747",
"`  c #E5A254",
"'  c #D5C64C",
"]  c #F1C941",
"[  c #F4C549",
"{  c #EFD04B",
"}  c #F7DB46",
"|  c #F5E943",
" . c #F8E448",
".. c #EAE75E",
"X. c #EBE95A",
"o. c #F2E755",
"O. c #DBC569",
"+. c #ECDA64",
"@. c #E4E261",
"#. c #6C3F85",
"$. c #743B8A",
"%. c #6C3D94",
"&. c #753797",
"*. c #743994",
"=. c #3B5A9A",
"-. c #3C57A2",
";. c #3C58A2",
":. c #3C5CA9",
">. c #4B5788",
",. c #415698",
"<. c #6C4282",
"1. c #73528D",
"2. c #755595",
"3. c #5D6799",
"4. c #6A6A9C",
"5. c #4257A3",
"6. c #9C3C8E",
"7. c #83648C",
"8. c #B45FA6",
"9. c #A665A1",
"0. c #E75B97",
"q. c #E85E97",
"w. c #ED579D",
"e. c #E35E99",
"r. c #EB5A9C",
"t. c #F1579C",
"y. c #F0599A",
"u. c #D96F8F",
"i. c #CD6898",
"p. c #D96595",
"a. c #E3669D",
"s. c #DA5DA6",
"d. c #E95AA1",
"f. c #DE72A5",
"g. c #E162A0",
"h. c #E678A8",
"j. c #858985",
"k. c #8E908E",
"l. c #BDAA9B",
"z. c #9FA1A0",
"x. c #B2ADA7",
"c. c #AEB3AC",
"v. c #B2B2AD",
"b. c #ADB4B1",
"n. c #B2B4B1",
"m. c #B7B8B2",
"M. c #D8B08B",
"N. c #E1B884",
"B. c #E4BB97",
"V. c #E884AE",
"C. c #F492BD",
"Z. c #DBBFA3",
"A. c #E3BDA2",
"S. c #ECCC97",
"D. c #DDC8AC",
"F. c #DCCFBE",
"G. c #F4D1AB",
"H. c #FCD6A8",
"J. c #F8D8AF",
"K. c #F6D5B3",
"L. c #F8D7B4",
"P. c #F6D8B4",
"I. c #F8D9B4",
"U. c #F5D7B9",
"Y. c #F4D9B9",
"T. c #F99BC5",
"R. c #C6AED5",
"E. c #FCACCF",
"W. c #FABED4",
"Q. c #FBBCDA",
"!. c #F4BAE3",
"~. c #CACCC7",
"^. c #D7D2C8",
"/. c #DADAD4",
"(. c #DEDFDA",
"). c #FAC0CB",
"_. c #F7D1C6",
"`. c #F7C0D5",
"'. c #F9C1D5",
"]. c #F8C1D9",
"[. c #DEE0DB",
"{. c #F7E5CB",
"}. c #E6E5DB",
"|. c #F4E8D6",
" X c #FDF2D7",
".X c #ECEDE5",
"XX c #EEEEEA",
"oX c #FFEBE2",
"OX c #FAF7E9",
"+X c #FEF5EB",
"@X c #FAEEFE",
"#X c #ECF6FF",
"$X c #F5F6F3",
"%X c #F7FBF5",
"&X c #FDFEF7",
"*X c #FDFDF8",
"=X c #FEFFF9",
/* pixels */
"*X&X&X*X*X*X*X*X*X*X*X*X*X*X*X*X*X*X*X*X*X*X*X*X*X*X*X*X*X*X*X*X*X*X*X*X*X*X*X*X*X*X*X*X*X*X*X*X*X*X*X*X*X*X*X*X*X*X*X*X*X&X&X*X",
"*X&X&X*X*X*X*X*X*X*X*X*X*X*X*X*X*X*X*X*X*X*X*X*X*X*X*X*X*X*X*X*X*X*X*X*X*X*X*X*X*X*X*X*X*X*X*X*X*X*X*X*X*X*X*X*X*X*X*X*X*X&X&X&X",
"*X&X&X*X*X*X*X*X*X*X*X*X*X*X*X*X*X*X*X*X*X*X*X*X*X*X*X*X*X*X*X*X*X*X*X*X*X*X*X*X*X*X*X*X*X*X*X*X*X*X*X*X*X*X*X*X*X*X*X*X*X&X&X&X",
"*X&X&X*X*X*X*X*X*X*X*X*X*X*X*X*X*X*X*X*X*X*X*X*X*X*X*X*X*X*X*X*X*X*X*X*X*X*X*X*X*X*X*X*X*X*X*X*X*X*X*X*X*X*X*X*X*X*X*X*X*X&X&X&X",
"*X&X&X*X*X*X*X*X*X*X*X*X*X*X*X*X*X*X*X*X*X*X*X*X*X*X*X*X*X*X*X*X*X*X*X*X*X*X*X*X*X*X*X*X*X*X*X*X*X*X*X*X*X*X*X*X*X*X*X*X*X&X&X&X",
"*X&X&X*X*X*X*X*X*X*X*X*X*X*X*X*X*X*X*X*X*X*X*X*X*X&X&X*X&X&X&X&X&X&X&X&X*X&X&X*X*X*X*X*X*X*X*X*X*X*X*X*X*X*X*X*X*X*X*X*X*X&X&X&X",
"*X&X&X*X*X*X*X*X*X*X*X*X*X*X*X@ @ &X&X*X*X*X*X*X*X|.|.5 5 5 5 5 5 5 5 5 5 ^.^.*X*X*X*X*X*X%X%X@ @ *X*X*X*X*X*X*X*X*X*X*X*X&X&X&X",
"*X&X&X*X*X*X*X*X*X*X*X*X*X*X*X    *X*X*X*X*X*X*X*X|.|.3 2 2 2 2 2 2 2 2 3 F.F.*X*X*X*X*X*X$X$X    *X*X*X*X*X*X*X*X*X*X*X*X&X&X&X",
"*X&X&X*X*X*X*X*X*X*X*X*X*X*X*X+ o *X*X*X+XOXOXOXOX{.{.: : : : : > : : : : D.D.OX+X+X+X&X&X$X$X+ + *X*X*X*X*X*X*X*X*X*X*X*X&X&X&X",
"*X&X&X*X*X*X*X*X*X*X*X*X*X*X*Xv.v.*X*X*X2 3 3 U ( / / J K K K K K K K K J D D ~ 3 2 2 D.&X%X%Xv.v.*X*X*X*X*X*X*X*X*X*X*X*X&X&X&X",
"*X&X&X*X*X*X*X*X*X*X*X&X%X$X$Xv.v.+X+X+X1 , , ! S C C J J J J J J J J J J D D Z ; , , Z.+XOXOXv.v.$X$X$X*X*X*X*X*X*X*X*X*X&X&X&X",
"*X&X&X*X*X*X*X*X*X*X*X[.o     *X*X2 2 , ) ~ ~ } J J J J J J J J J J J J J J J J ~ ) ) j 2 9 9 *X*X      &X*X*X*X*X*X*X*X*X&X&X&X",
"*X&X&X*X*X*X*X*X*X*X*X[.o     *X*X2 2 , ` ~ ~ } J J J J J J J J J J J J J J J J ~ ~ ~ k , 9 9 *X*X      &X*X*X*X*X*X*X*X*X&X&X&X",
"*X&X&X*X*X*X*X*X*X*X*X[.o     *X*XY Y ^ L P P J J J J J J J J J J J J J J J J J P P P D ~ ! ! *X*X      &X*X*X*X*X*X*X*X*X&X&X&X",
"*X&X&X*X*X*X*X*X*X*X*X[.o     *X*X) ) R L J J J J J J J J J J J J J J J J J J J J J J D ( ! ! *X*X    o &X*X*X*X*X*X*X*X*X&X&X&X",
"*X&X&X*X*X*X*X*X*X*X*X[.o     *X*XK K J G J J J J J J J J J J J J J J J J J J J J J J J J o.o.*X*X      &X*X*X*X*X*X*X*X*X&X&X&X",
"*X&X&X*X*X*X*X*X*X*X*X[.o     *X*XJ J J J J J J J J J J J J J J J J J J J J J J J J J J J X.X.*X*X      &X*X*X*X*X*X*X*X*X&X&X&X",
"*X&X&X*X*X*X*X*X*X*X*X[.o     *X*XJ J J J J J J J J J J J J J J J J J J J J J J J J J J J X.X.*X*X    o &X*X*X*X*X*X*X*X*X&X&X&X",
"*X&X&X*X*X*X*X*X*X*X*X[.o     *X*XJ J J J J J J J J J J J J J J J J J J J J J J J J J J J X.X.*X*X    o &X*X*X*X*X*X*X*X*X&X&X&X",
"*X&X*X*X*X}.}.}..X*X*X[.o     *X*XJ J K S S S J J J J J K Z Z S Z S S K J J J J  .C C F J X.X.*X*X      m.m.m.& & * * *X*X&X&X&X",
"*X&X&X*X*X@ @   r *X*X(.o     *X*XJ J J ( ) ) J J J J J | ~ ~ ~ ~ ~ ~ | J J J J } ( T } K X.X.*X*X      v.v.v.    @ @ *X*X&X&X&X",
"*X&X&X*X&X@ @   w /./.~.p i i j.j.J J J z z z F ] ] ] ] { S.S.S.x x x [ ] ] ] ] _ l l ] J ....j.j.t t t ^.^.^.    + + *X*X&X&X&X",
"*X&X&X*X&X@ @ o - v.v.m.*X&X&Xo o J J J < 3 3 ^ ( ~ ~ ( ! *X*X&Xd g g R ( ( ( ~ U 3 3 A J @.@.    v.v.v.&X&X&Xo   + + &X*X&X&X&X",
"*X&X&X*X&X@ @   - z.z.x.OX$X$X. . J J P 0 0 0 W W W W ) ! oXoXoXd g g R ) U U U Q 0 0 A  .+.+.. . m.m.v.XXXXXX& $ & & *X*X&X&X&X",
"*X&X&X*X*X*X*X*Xn.    * v.n.n.2 2 J J K J J J q 2 > > ~ E d d d d s s R ~ 2 2 2 | J J _ ( W W 2 2 *X*X*Xo     &X*X*X*X*X*X&X&X&X",
"*X&X&X*X*X*X*X*Xn.    * v.n.n.2 2 L L L J J J q ; ; ; ~ Y f f f f f f W T 1 1 < o.| | _ ( U U 2 2 *X*X*X      &X*X*X*X*X*X&X&X&X",
"*X&X&X*X*X*X*X*X&X&X&X(.o     2 2 Y Y Y K J J J K J J J L 2 2 2 2 2 2 P.U.L.L.Y.P.P.P.L.L.K.K.2 2 o o   *X*X*X*X*X*X*X*X*X&X&X&X",
"*X&X&X*X*X*X*X*X*X*X*X(.o     2 2 ~ ~ Y K G G J L G G H  .3 3 3 2 2 2 P.L.P.P.L.P.P.P.I.P.G.G.2 2 o o   *X*X*X*X*X*X*X*X*X&X&X&X",
"*X&X&X*X*X*X*X*X*X*X*X%X*X*X*X2 2 J.J.J.2 4 4 y :.>.>.Y ) ) ) ` I.L.L.U.J.;.;.:.4 2 3 M.L.G.G.2 3 %X%X*X&X*X*X*X*X*X*X*X*X&X&X&X",
"*X&X&X*X*X*X*X*X*X*X*X*X*X*X*X3 3 Y.Y.P.2 2 2 >.:.>.>.S ~ ^ ^ T P.L.L.P.J.;.;.5.4 2 2 M.L.K.K.3 3 *X*X*X*X*X*X*X*X*X*X*X*X&X&X&X",
"*X&X&X*X*X*X*X*X*X*X*X|.1 1 1 ) ) U.U.P.I.P.P.3.:.>.>.J.L.J.J.L.P.P.P.P.J.:.:.;.Y.L.L.L.P.H.H.` ` 1 1 1 *X*X*X*X*X*X*X*X*X&X&X&X",
"*X&X&X*X*X*X*X*X*X*X*X|.3 3 3 ) ) U.U.P.P.P.P.3.:.>.>.L.P.P.P.P.P.P.P.P.J.:.:.;.Y.P.P.P.P.H.H.) ` 3 2 3 *X*X*X*X*X*X*X*X*X&X&X&X",
"*X&X&X*X*X*X*X*X*X*X*X{.j j j D D B.B.B._._._.7.2.1.1.P.P.P.P.P.P.P.P.P.P.2.2.2._._._.A.B.N.N.D _ j j h *X*X*X*X*X*X*X*X*X&X&X&X",
"*X&X&X*X*X*X*X*X*X*X*X X( Y Y J J 2 2 < '.W.W.a.t.p.p.P.P.P.P.P.P.P.P.P.L.w.w.t.W.`.`.v 2 > > K  .~ ~ Y *X*X*X*X*X*X*X*X*X&X&X&X",
"*X&X&X*X*X*X*X*X*X*X*X XY Y Y J K 2 2 2 `.`.`.f.r.u.u.P.P.P.P.P.P.P.P.P.P.w.w.w.W.W.W.v 4 > > K  .) ) Y *X*X*X*X*X*X*X*X*X&X&X&X",
"*X&X&X*X*X*X*X*X*X*X*X XY ( ( J J t.t.w.2 < < B.L.J.J.I.L.L.L.L.L.L.L.L.L.L.L.P.3 2 2 B r.V V J  .) ) Y *X*X*X*X*X*X*X*X*X&X&X&X",
"*X&X&X*X*X*X*X*X*X*X*X XY ~ ~  . .g.g.p.8 7 7 B.G.G.G.G.G.G.G.G.G.G.G.G.G.G.G.G.7 7 7 B a.u.u. . .) ) Y *X*X*X*X*X*X*X*X*X&X&X&X",
"*X&X&X*X*X*X*X*X*X*X*X XY ) ) 2 2 '.'.`.0.q.q.a 2 2 3 2 3 3 3 3 3 3 3 3 2 3 3 3 q.w.w.T.`.).).3 > ( ( Y *X*X*X*X*X*X*X*X*X&X&X&X",
"*X&X&X*X*X*X*X*X*X*X*X XY Y Y 2 3 '.'.`.w.q.q.a 2 2 2 2 2 2 2 2 2 2 2 2 2 2 2 2 0.w.w.T.'.).).2 > ( ( ~ *X*X*X*X*X*X*X*X*X&X&X&X",
"*X&X&X*X*X*X*X*X*X*X*X|.4 2 2 b.b.c.c.v.  o o e *.*.*.*.*.*.*.*.*.*.*.*.*.*.*.*.O o o j.c.c.c.b.x.2 2 3 *X*X*X*X*X*X*X*X*X&X&X&X",
"*X&X&X*X*X*X*X*X*X*X*X|.4 3 3 v.v.v.v.v.  X X e *.*.*.$.*.*.*.*.*.*.*.*.*.&.&.$.      j.v.v.v.v.l.2 2 , &X*X*X*X*X*X*X*X*X&X&X&X",
"*X&X&X*X*X*X*X*X*X*X*X[.# # # %X%Xv.v.v.  % % ' J n n &.*.*.*.*.*.*.*.*.$.O.O.J       j.v.m.m.%X.X# # # *X*X*X*X*X*X*X*X*X&X&X&X",
"*X&X&X*X*X*X*X*X*X*X*X[.o     *X*Xc.c.v.  X X ' J n n *.*.*.*.*.*.*.*.*.$.O.O.J X X X j.v.v.v.&XXX      *X*X*X*X*X*X*X*X*X&X&X&X",
"*X&X&X*X*X*X*X*Xn.o o = &X*X*Xv.v.X     0.0.0.a 2 Q Q J K K K K K K K K K k k 3 0.r.r.6   + + v.v.*X*X*X  o o %X*X*X*X*X*X&X&X&X",
"*X&X&X*X*X*X*X*Xn.    = &X*X*Xv.v.X X   q.0.0.a 2 ' ' J K K K K K K K K J k k 3 0.w.w.6   + + v.v.*X*X*X      &X*X*X*X*X*X&X&X&X",
"*X&X&X*X*X*X*X*X/.k.k.j.u u u t t c c c C.C.C.m b M M I I J J J J J J I I N N b C.C.C.f.a.i.i.X X   X   *X*X*X&X*X*X*X*X*X&X&X&X",
"*X&X&X*X*X*X*X*X*X*X*X(.o     X X d.r.r.Q.`.`.f.w.2.2.,.,.J J J J J J =.-.8.8.t.W.W.W.h.w.i.i.    o o   &X*X*X*X*X*X*X*X*X&X&X&X",
"*X&X&X*X*X*X*X*X*X*X*X}.+ + + O O p.p.p.].`.`.u.e.1.1.5.,.X.X.X.X.....=.=.9.9.e.W.`.`.h.e.i.i.O O X X + *X*X*X*X*X*X*X*X*X&X&X&X",
"*X&X&X*X*X*X*X*X*X*X*X*X*X&X&X*.*.).).).W.`.`.`.`.4.4.;.;.;.;.;.;.;.;.;.-.R.R.`.`.`.`.`.`.!.!.*.*.&X&X*X*X*X*X*X*X*X*X*X*X&X&X&X",
"*X&X&X*X*X*X*X*X*X*X*X*X*X&X&X*.*.V.V.V.W.`.`.`.`.4.4.;.;.;.;.;.;.;.;.;.-.R.R.`.`.`.`.W.W.!.!.*.*.&X&X*X*X*X*X*X*X*X*X*X*X&X&X&X",
"*X&X&X*X*X*X*X*X*X*X*X*X*X&X&X*.*.y.y.r.W.`.`.`.`.4.4.;.;.;.;.;.;.;.;.;.-.R.R.`.'.`.'.h.t.s.s.*.*.&X&X*X*X*X*X*X*X*X*X*X*X&X&X&X",
"*X&X&X*X*X*X*X*X*X*X*X*X*X*X*X*.*.y.y.y.W.W.W.Q.`.4.4.;.;.;.;.;.;.;.;.;.-.R.R.`.].`.`.h.r.s.s.*.*.&X&X*X*X*X*X*X*X*X*X*X*X&X&X&X",
"*X&X&X*X*X*X*X*X*X*X*X*X*X&X&X*X*X&.&.*.d.r.r.W.`.4.4.;.;.;.;.;.;.;.;.;.-.R.R.`.E.t.t.6.*.<.<.&X&X&X&X*X*X*X*X*X*X*X*X*X*X&X&X&X",
"*X&X&X*X*X*X*X*X*X*X*X*X*X*X*X*X*X*.*.*.d.t.t.Q.`.4.4.-.;.-.-.;.;.;.;.;.;.R.R.`.E.w.t.6.&.<.<.*X*X*X*X*X*X*X*X*X*X*X*X*X*X&X&X&X",
"*X&X&X*X*X*X*X*X*X*X*X*X*X*X*X*X*X*X*X*X*X*X*X#.*.*.*.*.%.;.;.;.;.;.;.%.*.*.*.*.2.*X*X*X*X*X*X*X*X*X*X*X*X*X*X*X*X*X*X*X*X&X&X&X",
"*X&X&X*X*X*X*X*X*X*X*X*X*X*X*X*X*X*X*X*X*X*X*X#.*.*.*.*.%.;.;.;.;.;.;.%.*.*.*.*.2.*X*X*X*X*X*X*X*X*X*X*X*X*X*X*X*X*X*X*X*X&X&X&X",
"*X&X&X*X*X*X*X*X*X*X*X*X*X*X*X*X*X*X*X*X*X&X&X@X@X@X@X@X@X#X#X#X#X#X#X@X@X@X@X@X@X&X&X*X*X*X*X*X*X*X*X*X*X*X*X*X*X*X*X*X*X&X&X&X",
"*X&X&X*X*X*X*X*X*X*X*X*X*X*X*X*X*X*X*X*X*X*X*X&X&X&X&X&X*X*X&X&X&X&X&X&X&X&X&X&X*X*X*X*X*X*X*X*X*X*X*X*X*X*X*X*X*X*X*X*X*X*X&X&X",
"*X&X&X*X*X*X*X*X*X*X*X*X*X*X*X*X*X*X*X*X*X*X*X*X*X*X*X*X*X*X*X*X*X*X*X*X*X*X*X*X*X*X*X*X*X*X*X*X*X*X*X*X*X*X*X*X*X*X*X*X*X&X*X*X",
"*X&X&X*X*X*X*X*X*X*X*X*X*X*X*X*X*X*X*X*X*X*X*X*X*X*X*X*X*X*X*X*X*X*X*X*X*X*X*X*X*X*X*X*X*X*X*X*X*X*X*X*X*X*X*X*X*X*X*X*X*X*X*X*X",
"*X&X&X*X*X*X*X*X*X*X*X*X*X*X*X*X*X*X*X*X*X*X*X*X*X*X*X*X*X*X*X*X*X*X*X*X*X*X*X*X*X*X*X*X*X*X*X*X*X*X*X*X*X*X*X*X*X*X*X*X*X*X&X*X",
"*X&X&X*X*X*X*X*X*X*X*X*X*X*X*X*X*X*X*X*X*X*X*X*X*X*X*X*X*X*X*X*X*X*X*X*X*X*X*X*X*X*X*X*X*X*X*X*X*X*X*X*X*X*X*X*X*X*X*X*X*X*X&X&X",
"*X*X*X*X*X*X*X*X*X*X*X*X*X*X*X*X*X*X*X*X*X*X*X*X*X*X*X*X*X*X*X*X*X*X*X*X*X*X*X*X*X*X*X*X*X*X*X*X*X*X*X*X*X*X*X*X*X*X*X*X*X&X&X*X",
"*X*X*X*X*X*X*X*X*X*X*X*X*X*X*X*X*X*X*X*X*X*X*X*X*X*X*X*X*X*X*X*X*X*X*X*X*X*X*X*X*X*X*X*X*X*X*X*X*X*X*X*X*X*X*X*X*X*X*X*X*X*X*X*X"
};
