/* XPM */
static char *aebf2a3ddf324710dc7fef9415482657sPCpdy6dNabMm2Ut[] = {
/* columns rows colors chars-per-pixel */
"64 64 236 2 ",
"   c #3F0E00",
".  c #331401",
"X  c #381301",
"o  c #460B00",
"O  c #4B0C00",
"+  c #530E00",
"@  c #590E00",
"#  c #451100",
"$  c #4C1201",
"%  c #491A01",
"&  c #521301",
"*  c #5B1501",
"=  c #561B01",
"-  c #5B1A02",
";  c #661B02",
":  c #641D02",
">  c #532102",
",  c #672505",
"<  c #6D2303",
"1  c #742502",
"2  c #752C01",
"3  c #7A2C02",
"4  c #772808",
"5  c #653506",
"6  c #7D3606",
"7  c #76440D",
"8  c #7E4116",
"9  c #81320E",
"0  c #853809",
"q  c #85460C",
"w  c #95480A",
"e  c #9B540D",
"r  c #8A4A15",
"t  c #964815",
"y  c #8F5313",
"u  c #995615",
"i  c #A94B0F",
"p  c #A9570A",
"a  c #B25B0B",
"s  c #A35514",
"d  c #A55915",
"f  c #A35C1C",
"g  c #B45E12",
"h  c #B15A16",
"j  c #95611B",
"k  c #A9660B",
"l  c #B4640C",
"z  c #B9630D",
"x  c #B6690C",
"c  c #BC6B0D",
"v  c #A9740C",
"b  c #B4730E",
"n  c #AB6313",
"m  c #A9671A",
"M  c #AC641B",
"N  c #B46314",
"B  c #BB6414",
"V  c #B66914",
"C  c #BC6C14",
"Z  c #B4691A",
"A  c #BE6C1A",
"S  c #BC7115",
"D  c #B9741A",
"F  c #9A5B25",
"G  c #885D34",
"H  c #A85924",
"J  c #99642D",
"K  c #976338",
"L  c #A96721",
"P  c #B36925",
"I  c #BA7825",
"U  c #B6782D",
"Y  c #DE680F",
"T  c #C5730D",
"R  c #C67A0E",
"E  c #C26D14",
"W  c #C86C13",
"Q  c #C36D1B",
"!  c #C57314",
"~  c #CE7313",
"^  c #C57B13",
"/  c #CB7B14",
"(  c #C4731A",
")  c #CA751C",
"_  c #C5791B",
"`  c #CC7C1C",
"'  c #D87B15",
"]  c #D17C1C",
"[  c #E27C15",
"{  c #C77C20",
"}  c #D37E22",
"|  c #EA7722",
" . c #926D52",
".. c #A67B57",
"X. c #B7811D",
"o. c #BF8420",
"O. c #D9830D",
"+. c #CB8A16",
"@. c #CA8318",
"#. c #CC831C",
"$. c #D78519",
"%. c #D3831D",
"&. c #D48B1E",
"*. c #DC8C1D",
"=. c #DA961D",
"-. c #E38F1A",
";. c #EA971E",
":. c #DDA31E",
">. c #E7A31C",
",. c #F1A51D",
"<. c #CD8421",
"1. c #CC8A26",
"2. c #D38323",
"3. c #DA8623",
"4. c #D48B23",
"5. c #DA8C24",
"6. c #D8852A",
"7. c #DC8D29",
"8. c #DC9324",
"9. c #DD9825",
"0. c #DD942A",
"q. c #DE9D2B",
"w. c #C88838",
"e. c #CB9531",
"r. c #D69538",
"t. c #E39523",
"y. c #E39A25",
"u. c #EA9C25",
"i. c #E2942A",
"p. c #EB912A",
"a. c #E39B2B",
"s. c #EB9D2A",
"d. c #E49831",
"f. c #DEA12D",
"g. c #D9B330",
"h. c #E5A627",
"j. c #ECA223",
"k. c #E5A12D",
"l. c #ECA42C",
"z. c #EDAA2C",
"x. c #F5A925",
"c. c #F2A52A",
"v. c #F3AB2B",
"b. c #EBB42C",
"n. c #F5B32B",
"m. c #F3B42C",
"M. c #F4BC2C",
"N. c #E4A432",
"B. c #EBA531",
"V. c #E6A931",
"C. c #EAAA33",
"Z. c #EAAC3B",
"A. c #F3AC33",
"S. c #F5AA38",
"D. c #EDB635",
"F. c #F5B433",
"G. c #F4BC32",
"H. c #F9BB33",
"J. c #F9B936",
"K. c #F9C42E",
"L. c #F6C234",
"P. c #FAC334",
"I. c #FACA37",
"U. c #F7C63A",
"Y. c #FAC43A",
"T. c #F7CB3C",
"R. c #F9CB3D",
"E. c #FDD33D",
"W. c #F9E238",
"Q. c #B29176",
"!. c #CC9345",
"~. c #E19F46",
"^. c #DCAD4A",
"/. c #E6A940",
"(. c #EDBD46",
"). c #F3B647",
"_. c #E5C040",
"`. c #FBCE41",
"'. c #F7CB48",
"]. c #F4D145",
"[. c #FDD444",
"{. c #FDDB44",
"}. c #FDD649",
"|. c #FEDC4C",
" X c #F8C952",
".X c #FDDE51",
"XX c #FAD856",
"oX c #FFE548",
"OX c #FEE14D",
"+X c #FEE353",
"@X c #FAE457",
"#X c #FEE955",
"$X c #FEE958",
"%X c #F3C86C",
"&X c #F9DB69",
"*X c #FAE566",
"=X c #FCF16C",
"-X c #FBEB7B",
";X c #FEF276",
":X c #AE9788",
">X c #CEB095",
",X c #D5BCAA",
"<X c #EECD9B",
"1X c #FAEE81",
"2X c #FCED8B",
"3X c #FBF284",
"4X c #FDEF96",
"5X c #FFF996",
"6X c #FFF49D",
"7X c #D9C7B4",
"8X c #F6D1A8",
"9X c #FCF4A4",
"0X c #FCF8A7",
"qX c #FDF4AD",
"wX c #F7EEB7",
"eX c #FEF7B6",
"rX c #FEF5BA",
"tX c #E2D5C9",
"yX c #F2DECE",
"uX c #FFF6C4",
"iX c #FFFBC5",
"pX c #FCF5CC",
"aX c #FDFACB",
"sX c #ECE4DC",
"dX c #FCF6D3",
"fX c #FEFBD3",
"gX c #FDFADD",
"hX c #EFE8E3",
"jX c #F6EEEB",
"kX c #FAF7E1",
"lX c #FDFAE3",
"zX c #FDFCEB",
"xX c #F9F7F7",
"cX c #FEFCF4",
"vX c #FFFDFD",
"bX c white",
/* pixels */
"bXbXbXbXbXbXbXbXbXbXbXbXbXbXbXbXbXbXbXbXbXbXbXbXbXbXbXbXbXbXbXbXbXbXbXbXbXbXbXbXbXbXbXbXbXbXbXbXbXbXbXbXbXbXbXbXbXbXbXbXbXbXbXbX",
"bXbXbXbXbXbXbXbXbXbXbXbXbXbXbXbXbXbXbXbXbXbXbXbXbXbXbXbXbXbXbXbXbXbXbXbXbXbXbXbXbXbXbXbXbXbXbXbXbXbXbXbXbXbXbXbXbXbXbXbXbXbXbXbX",
"bXbXbXbXbXbXbXbXbXbXbXbXbXbXbXbXbXbXbXbXbXbXbXbXbXbXbXbXbXbXbXbXbXbXbXbXbXbXbXbXbXbXbXbXbXbXbXbXbXbXbXbXbXbXbXbXbXbXbXbXbXbXbXbX",
"bXbXbXbXbXbXbXbXbXbXbXbXbXbXbXbXbXbXbXbXbXbXbXbXbXbXbXbXbXbXbXbXbXbXbXbXbXbXbXbXbXbXbXbXbXbXbXbXbXbXbXbXbXbXbXbXbXbXbXbXbXbXbXbX",
"bXbXbXbXbXbXbXbXbXbXbXbXbXbXbXbXbXbXbXbXbXbXbXbXbXbXbXbXbXbXbXbXbXbXbXbXbXbXbXbXbXbXbXbXbXbXbXbXbXbXbXbXbXbXbXbXbXbXbXbXbXbXbXbX",
"bXbXbXbXbXbXbXbXbXbXbXbXbXbXbXbXbXbXbXbXbXbXbXbXbXbXbXbXbXbXbXcXxXbXbXbXbXbXbXbXbXbXbXbXbXbXbXbXbXbXbXbXbXbXbXbXbXbXbXbXbXbXbXbX",
"bXbXbXbXbXbXbXbXbXbXbXbXbXbXbXbXbXbXbXbXbXbXbXbXbXbXbXbXbXbXbX6Xr bXbXbXbXbXbXbXbXbXbXbXbXbXbXbXbXbXbXbXbXbXbXbXbXbXbXbXbXbXbXbX",
"bXbXbXbXbXbXbXbXbXbXbXbXbXbXbXbXbXbXbXbXbXbXbXbXbXbXbXbXbXbXpX0Xd 7XbXbXbXbXbXbXbXbXbXbXbXbXbXbXbXbXbXbXbXbXbXbXbXbXbXbXbXbXbXbX",
"bXbXbXbXbXbXbXbXbXbXbXbXbXbXbXbXbXbXbXbXbXbXbXbXbXbXbXbXbXbXqXqXu L bXbXbXbXbXbXbXbXbXbXbXbXbXbXbXbXbXbXbXbXbXbXbXbXbXbXbXbXbXbX",
"bXbXbXbXbXbXbXbXbXbXbXbXbXbXbXbXbXbXbXbXbXbXbXbXbXbXbXbXbX4XrX@XW.n J bXbXbXbXbXbXbXbXbXbXbXbXbXbXbXbXbXbXbXbXbXbXbXbXbXbXbXbXbX",
"bXbXbXbXbXbXbXbXbXbXbXbXbXbXbXbXbXbXbXbXbXbXbXbXbXbXbXbXbXrXiX+X#Xv L bXbXbXbXbXbXbXbXbXbXbXbXbXbXbXbXbXbXbXbXbXbXbXbXbXbXbXbXbX",
"bXbXbXbXbXbXbXbXbXbXbXbXbXbXbXbXbXbXbXbXbXbXbXbXbXbXbXbX6XfX@X$X$XoXm y bXbXbXbXbXbXbXbXbXbXbXbXbXbXbXbXbXbXbXbXbXbXbXbXbXbXbXbX",
"bXbXbXbXbXbXbXbXbXbXbXbXbXbXbXbXbXbXbXbXbXbXbXbXbXbXbXcXpXiX$X$X#X+Xg.f sXbXbXbXbXbXbXbXbXbXbXbXbXbXbXbXbXbXbXbXbXbXbXbXbXbXbXbX",
"bXbXbXbXbXbXbXbXbXbXbXbXbXbXbXbXbXbXbXbXbXbXbXbXbXbXbXuXzX#X$X$X#X+XoXm H bXbXbXbXbXbXbXbXbXbXbXbXbXbXbXbXbXbXbXbXbXbXbXbXbXbXbX",
"bXbXbXbXbXbXbXbXbXbXbXbXbXbXbXbXbXbXbXbXbXbXbXbXbXbXwXgX2X#X#X#X#X+X+X|.U Q.bXbXbXbXbXbXbXbXbXbXbXbXbXbXbXbXbXbXbXbXbXbXbXbXbXbX",
"bXbXbXbXbXbXbXbXbXbXbXbXbXbXbXbXbXbXbXbXbXbXbXbXbXbXuXzX#X#X#X#X#X+X+XOXk m bXbXbXbXbXbXbXbXbXbXbXbXbXbXbXbXbXbXbXbXbXbXbXbXbXbX",
"bXbXbXbXbXbXbXbXbXbXbXbXbXbXbXbXbXbXbXbXbXbXbXbXbXrXgX*X+X#X#X+X+X+X+XOX|.f u bXbXbXbXbXbXbXbXbXbXbXbXbXbXbXbXbXbXbXbXbXbXbXbXbX",
"bXbXbXbXbXbXbXbXbXbXbXbXbXbXbXbXbXbXbXbXbXbXbXbXcXdXaX+X#X#X#X+X+XOXOXOX+Xe.h jXbXbXbXbXbXbXbXbXbXbXbXbXbXbXbXbXbXbXbXbXbXbXbXbX",
"bXbXbXbXbXbXbXbXbXbXbXbXbXbXbXbXbXbXbXbXbXbXbXbXrXzX#X+X#X+X#X+X+X+X+X+XoXOXU m bXbXbXbXbXbXbXbXbXbXbXbXbXbXbXbXbXbXbXbXbXbXbXbX",
"bXbXbXbXbXbXbXbXbXbXbXbXbXbXbXbXbXbXbXbXbXbXbXpXlXqX+X+X+X#X+X.X+X+X+X+X+XOXXXn >XbXbXbXbXbXbXbXbXbXbXbXbXbXbXbXbXbXbXbXbXbXbXbX",
"bXbXbXbXbXbXbXbXbXbXbXbXbXbXbXbXbXbXbXbXbXbXbXaXzXoX+X#X#X+X+X|.OX+X+X+X+X+XoXm d bXbXbXbXbXbXbXbXbXbXbXbXbXbXbXbXbXbXbXbXbXbXbX",
"bXbXbXbXbXbXbXbXbXbXbXbXbXbXbXbXbXbXbXbXbXbX9XlX*XOX+X#X#X+XOX|.|.+X+X.X+X+XoXOXM F bXbXbXbXbXbXbXbXbXbXbXbXbXbXbXbXbXbXbXbXbXbX",
"bXbXbXbXbXbXbXbXbXbXbXbXbXbXbXbXbXbXbXbXbXbXpXlXOXoX+X+X+XOX|.OX|..X+X.X+X+X+X|.b i bXbXbXbXbXbXbXbXbXbXbXbXbXbXbXbXbXbXbXbXbXbX",
"bXbXbXbXbXbXbXbXbXbXbXbXbXbXbXbXbXbXbXbXbXqXzX@X|.OXOXOX|.|.|.|.|.}.}.|..X}.OX|.E.Z q bXbXbXbXbXbXbXbXbXbXbXbXbXbXbXbXbXbXbXbXbX",
"bXbXbXbXbXbXbXbXbXbXbXbXbXbXbXbXbXbXbXbXcXgXaXoX|.|.+X+X|.OXOXOX|.}.}.|.+X|.|.|.|.+.L bXbXbXbXbXbXbXbXbXbXbXbXbXbXbXbXbXbXbXbXbX",
"bXbXbXbXbXbXbXbXbXbXbXbXbXbXbXbXbXbXbXbXeXzX{.{.{.{.}.{.OXOX+X|.|.}.}.}.}.|..X|.|.}.n w bXbXbXbXbXbXbXbXbXbXbXbXbXbXbXbXbXbXbXbX",
"bXbXbXbXbXbXbXbXbXbXbXbXbXbXbXbXbXbXbXwXkX4X{.{.|.|.|.}.|.{.|.|.|.|.|.}.[.}.|.|.|.|.[.d Q.bXbXbXbXbXbXbXbXbXbXbXbXbXbXbXbXbXbXbX",
"bXbXbXbXbXbXbXbXbXbXbXbXbXbXbXbXbXbXbXuXzX{.{.}.|.}.}.}.}.|.}.}.|.|..X}.|.}.|.|.|.|.E.e M bXbXbXbXbXbXbXbXbXbXbXbXbXbXbXbXbXbXbX",
"bXbXbXbXbXbXbXbXbXbXbXbXbXbXbXbXbXbX9XzXXX[.}.[.}.|.|.}.[.}.}.}.}.|.|.{.|..X|.}.}.E.[.K.P F bXbXbXbXbXbXbXbXbXbXbXbXbXbXbXbXbXbX",
"bXbXbXbXbXbXbXbXbXbXbXbXbXbXbXbXbXbXaXfX}.}.}.|.}.}.[.}.`.[.}.|.}.|.|.|.}.}.}.].}.}.[.E.b f bXbXbXbXbXbXbXbXbXbXbXbXbXbXbXbXbXbX",
"bXbXbXbXbXbXbXbXbXbXbXbXbXbXbXbXbX6XlXT.I.`.[.}.}.[.`.`.[.`.U.}.}.|.|.}.[.[.[.}.`.[.R.E.I.m u bXbXbXbXbXbXbXbXbXbXbXbXbXbXbXbXbX",
"bXbXbXbXbXbXbXbXbXbXbXbXbXbXbXbXdXrXqXI.I.R.R.T.R.U.R.`.R.T.Y.R.R.E.`.`.R.T.R.`.[.R.Y.P.L.V.L tXbXbXbXbXbXbXbXbXbXbXbXbXbXbXbXbX",
"bXbXbXbXbXbXbXbXbXbXbXbXbXbXbXbXqXgXM.M.L.L.L.P.I.L.L.L.L.Y.P.L.K.M.Y.L.Y.U.G.U.U.U.G.M.P.M.w d bXbXbXbXbXbXbXbXbXbXbXbXbXbXbXbX",
"bXbXbXbXbXbXbXbXbXbXbXbXbXbXbX2XiX%X% > = : 1 1 3 2 2 3 2 1 1 3 < 2 2 3 3 3 2 2 2 2 , , = % F.s K bXbXbXbXbXbXbXbXbXbXbXbXbXbXbX",
"bXbXbXbXbXbXbXbXbXbXbXbXbXbXbXqXaXn.5 . . < < < < 1 1 ; < ; ; < : = - - - , : , < , = X X j ,.e s bXbXbXbXbXbXbXbXbXbXbXbXbXbXbX",
"bXbXbXbXbXbXbXbXbXbXbXbXbXbX1XfXz.x.b.5 . bXbXbXbXbXbXbXbXbXbXbXbXbXbXbXbXbXbXbXbXbXbX. 7 m.n.>.I q bXbXbXbXbXbXbXbXbXbXbXbXbXbX",
"bXbXbXbXbXbXbXbXbXbXbXbXbXzXrXeXH.H.m.e.2 :XbXbXbXbXbXbXbXbXbXbXbXbXbXbXbXbXbXbXbXbXQ.e *XH.H.F.q.I jXbXbXbXbXbXbXbXbXbXbXbXbXbX",
"bXbXbXbXbXbXbXbXbXbXbXbXbX6XfXJ.G.Y.H.b.Z 4 bXbXbXbXbXbXbXbXbXbXbXbXbXbXbXbXbXbXbXbXe (.m.G.m.H.n.d y bXbXbXbXbXbXbXbXbXbXbXbXbX",
"bXbXbXbXbXbXbXbXbXbXbXbX9XeX-XF.Y.Y.Y.H.).d 7 bXbXbXbXbXbXbXbXbXbXbXbXbXbXbXbXbXbXq V.*XF.F.F.n.j.`.h Q.bXbXbXbXbXbXbXbXbXbXbXbX",
"bXbXbXbXbXbXbXbXbXbXbXbX3XuXm.F.F.F.J.v.x.p t bXbXbXbXbXbXbXbXbXbXbXbXbXbXbXbXbXbXk.-XM.x.n.j.F.v.j.a P bXbXbXbXbXbXbXbXbXbXbXbX",
"bXbXbXbXbXbXbXbXbXbXbX*X0XZ.u.F.v.A.A.l.;.z.N 6 bXbXbXbXbXbXbXbXbXbXbXbXbXbXbXbX_ XXV.x.A.z.A.c.z.z.G.U r bXbXbXbXbXbXbXbXbXbXbX",
"bXbXbXbXbXbXbXbXbXbXbX1X5Xz.s.B.z.A.s.s.u.u.D n sXbXbXbXbXbXbXbXbXbXbXbXbXbXbXyXD.5Xh.y.y.z.A.z.j.D.n.k w.xXbXbXbXbXbXbXbXbXbXbX",
"bXbXbXbXbXbXbXbXbXbX;X0X=.y.C.C.C.k.y.y.k.t.h.Z s bXbXbXbXbXbXbXbXbXbXbXbXbXbXc.=X>.t.y.C.y.A.A.t.F.z.n.r.L bXbXbXbXbXbXbXbXbXbX",
"bXbXbXbXbXbXbXbXbXwX1X3Xy.a.a.i.k.a.N.k.k.k.C./.e ..bXbXbXbXbXbXbXbXbXbXbXbX^.&X2Xs.t.8.Z.k.S.5.8.S.F.j.XX!.7XbXbXbXbXbXbXbXbXbX",
"bXbXbXbXbXbXbXbXbX=XqX*.8.B.B.a.k.a.k.C.C.l.y.y.V m bXbXbXbXbXbXbXbXbXbXbXbX'.0X=.7.7.B.a.5.a.i.8.8.A.b.>.e w.bXbXbXbXbXbXbXbXbX",
"bXbXbXbXbXbXbXbX*X3X_.3.k.C.a.B.a.a.V.C.C.a.k.=.).1.r bXbXbXbXbXbXbXbXbXbXc.1X^.N.i.4.%.5.&.5.8.C.N.9.h.h.].!.G bXbXbXbXbXbXbXbX",
"bXbXbXbXbXbXbXbX@X3X$.0.5.9.8.f.V.a.9.q.=.9.a.8.9.X.I bXbXbXbXbXbXbXbXbXbX'.0X$.$.i.&.7.2.a.5.a.a.2.N.$.=.O.D u bXbXbXbXbXbXbXbX",
"bXbXbXbXbXbXbX#X=X:.8.i.%.i.a.5.q.f.8.3.a.a.a.q.q.=.D u bXbXbXbXbXbXbXbXz.-X=.8.%.5.2.5.4.a.k.8.2.3.5.y.*.;.:.w.6 bXbXbXbXbXbXbX",
"bXbXbXbXbXbXkX=X=X*.%.%.5.a.i.i.8.8.9.d.q.a.N.q.@.$.e.D >XbXbXbXbXbXbX<XXX-X5.7.4.2.5.4.0.8.y.] <.d.] %.z.j.j.D.t hXbXbXbXbXbXbX",
"bXbXbXbXbXbXoX;X$.%.3.} a.q.9.4.8.a.&.` i.%.2.5.` R T 1.M bXbXbXbXbXbXJ.-X%.&.5.2.` #.2.2.8._ ` #.%.t.*.z.y.t.;.f 2 bXbXbXbXbXbX",
"bXbXbXbXbX&X.XD.%.2.0.3.} 5.} 5.5.] 2.4.i.3.2.7.0.8.&. Xe.J bXbXbXbXr.XX%X) 2.` 0.} 2.<.d.` ) ( } 2.5.3.$.y.u.-.'.t  .bXbXbXbXbX",
"bXbXbXbXbX@X*X*./ &.2.` ) i.7.( ` 7.%.a.0.&.5.^ 7.0.^ 4.o.Z bXbXbXbXF.*X&.0.#.2.` } C ( } 6.` ` 2.c %.i.i.$.*.*.c.m f bXbXbXbXbX",
"bXbXbXbX`.'.O.! T &.` 4.%.] 5.) E ` 0.9.8.#.i.&.4.0.&.T ` 1.6 bXbXt. X!.) C B ` ( ! ! ( ( ` ` 7.E ) ( E 3.5.*.p.-.=.H F bXbXbXbX",
"bXbXbXcX'.{.W 5.3.) ) 7.] ] } ] E #.%.` <.%.2.} &.V ( ! / I w tXyXu.&X( ) A A ( _ <.%.#.( 2.<.C ) Q ) c 6.4.T W ' O.I m xXbXbXbX",
"bXbXbXF.}.R %.&.#.Q ! 4.%.` ( ` ) ` ` E E B Q ) } #.c @.#.^ ' i [ }.n ! ( ` N V { C S V ( ( Q B ( C { ( S C ` ! / E @.u L bXbXbX",
"bXbX8X X{./ ^ ! c ) ] C 2.` 2.E E ! Q A B A C ! _ ( ( N Q ( %XY x.2X_ C A B S M B k C g N B a Q C <.S S ( ( 2.#.] ! W (.e ,XbXbX",
"bXbXJ.[.R ! #.` x ! E ] ` Q B ( z E Q B B E A g B E a E Q B a Y x.a g V _ V S S V N z N A C S C A Q V N N { x _ ^ ~ z c Z H bXbX",
"bX| J.z.T ! c ` ! x E z z E z E E a B g a B a C C c B E a A g ~.!.z B a C l N N p l S p l A l p i x N A p p x C x c T E D.t 8 bX",
"bX| B = * ; @ * + & * + * O O $ O   # # o + & + O O o & $ $ o O # $ $ = = o O $ o o & O O o # & o & & o O + * * + * O $ # 8 6 bX",
"h = = ; 0 0 < 1 ; = - 4 < 4 9 0 = , & , - - * 1 = , ; $ $ 6 < - : $ 9 9 < = = 0 : 4 & 1 0 $ < 6 & 4 - 1 0 9 3 ; 3 3 : 4 6 > % 5 ",
"bXbXbXbXbXbXbXbXbXbXbXbXbXbXbXbXbXbXbXbXbXbXbXbXbXbXbXbXbXbXbXbXbXbXbXbXbXbXbXbXbXbXbXbXbXbXbXbXbXbXbXbXbXbXbXbXbXbXbXbXbXbXbXbX",
"bXbXbXbXbXbXbXbXbXbXbXbXbXbXbXbXbXbXbXbXbXbXbXbXbXbXbXbXbXbXbXbXbXbXbXbXbXbXbXbXbXbXbXbXbXbXbXbXbXbXbXbXbXbXbXbXbXbXbXbXbXbXbXbX",
"bXbXbXbXbXbXbXbXbXbXbXbXbXbXbXbXbXbXbXbXbXbXbXbXbXbXbXbXbXbXbXbXbXbXbXbXbXbXbXbXbXbXbXbXbXbXbXbXbXbXbXbXbXbXbXbXbXbXbXbXbXbXbXbX",
"bXbXbXbXbXbXbXbXbXbXbXbXbXbXbXbXbXbXbXbXbXbXbXbXbXbXbXbXbXbXbXbXbXbXbXbXbXbXbXbXbXbXbXbXbXbXbXbXbXbXbXbXbXbXbXbXbXbXbXbXbXbXbXbX"
};
