/* XPM */
static char *ab9a9c2ab90745e3a23f804015b00560KGCirKP8ZziZ8ThC[] = {
/* columns rows colors chars-per-pixel */
"64 64 231 2 ",
"   c #2D1115",
".  c #551616",
"X  c #641E1A",
"o  c #5D221E",
"O  c #68261A",
"+  c #72221A",
"@  c #5F1F20",
"#  c #631F21",
"$  c #532524",
"%  c #5B3638",
"&  c #6D2A24",
"*  c #642828",
"=  c #6D2D2C",
"-  c #722721",
";  c #722B25",
":  c #732D2B",
">  c #6D322A",
",  c #7B3226",
"<  c #74332C",
"1  c #7C332D",
"2  c #75382F",
"3  c #7B382D",
"4  c #6A2C30",
"5  c #762F31",
"6  c #683736",
"7  c #6B3B3C",
"8  c #743535",
"9  c #7C3532",
"0  c #753B33",
"q  c #7C3B34",
"w  c #78343B",
"e  c #743D3A",
"r  c #7C3E3B",
"t  c #794238",
"y  c #7D423C",
"u  c #673D41",
"i  c #793F42",
"p  c #684246",
"a  c #6B4A4C",
"s  c #7E4342",
"d  c #794647",
"f  c #7D4944",
"g  c #734D4C",
"h  c #75514F",
"j  c #714F54",
"k  c #7D5454",
"l  c #7B555A",
"z  c #78595C",
"x  c #795E61",
"c  c #7A6465",
"v  c #776A6C",
"b  c #82352D",
"n  c #843A2F",
"m  c #823C35",
"M  c #883C34",
"N  c #833E3A",
"B  c #844235",
"V  c #894236",
"C  c #84443C",
"Z  c #8A453B",
"A  c #85493E",
"S  c #8C4A3E",
"D  c #91453B",
"F  c #934C3D",
"G  c #844542",
"H  c #8A4541",
"J  c #854A44",
"K  c #8C4C43",
"L  c #874648",
"P  c #854D4A",
"I  c #8B4D4A",
"U  c #924E44",
"Y  c #924E4B",
"T  c #9A4E48",
"R  c #8D5246",
"E  c #85524C",
"W  c #8B564A",
"Q  c #8C524C",
"!  c #935245",
"~  c #985646",
"^  c #92544B",
"/  c #99554C",
"(  c #93594E",
")  c #995A4E",
"_  c #854D54",
"`  c #934F51",
"'  c #845353",
"]  c #8C5452",
"[  c #845A53",
"{  c #8D5954",
"}  c #83565B",
"|  c #8E545A",
" . c #835B5B",
".. c #8C5C5B",
"X. c #935552",
"o. c #9A5452",
"O. c #945B54",
"+. c #9B5C53",
"@. c #945D5A",
"#. c #995E5B",
"$. c #A05B56",
"%. c #8B625C",
"&. c #9C6157",
"*. c #94615C",
"=. c #9A635B",
"-. c #9E6A5E",
";. c #A16156",
":. c #A3645C",
">. c #A2695D",
",. c #845F61",
"<. c #8A5D64",
"1. c #935F60",
"2. c #826465",
"3. c #8B6462",
"4. c #846768",
"5. c #846B6B",
"6. c #8D6C6B",
"7. c #956462",
"8. c #976765",
"9. c #9B6462",
"0. c #9C6965",
"q. c #966769",
"w. c #926A6C",
"e. c #9E6D6A",
"r. c #8D726E",
"t. c #8A6E71",
"y. c #936D71",
"u. c #9B6E70",
"i. c #8A7576",
"p. c #8C7579",
"a. c #947374",
"s. c #9C7474",
"d. c #9C7875",
"f. c #92757A",
"g. c #947B7D",
"h. c #9C7B7D",
"j. c #A16662",
"k. c #A26B64",
"l. c #A86C65",
"z. c #A26D6B",
"x. c #A4716C",
"c. c #AB716D",
"v. c #A57573",
"b. c #AB7473",
"n. c #A77A79",
"m. c #B17970",
"M. c #B7857F",
"N. c #8C7A81",
"B. c #957F81",
"V. c #9B7E84",
"C. c #A47E84",
"Z. c #8D838B",
"A. c #9B8485",
"S. c #9C918F",
"D. c #948B92",
"F. c #9D8B92",
"G. c #9A9699",
"H. c #9C959B",
"J. c #A48384",
"K. c #A88586",
"L. c #A48C8E",
"P. c #AC8B8D",
"I. c #B8878A",
"U. c #B48B8D",
"Y. c #A58D91",
"T. c #AC9396",
"R. c #B7979A",
"E. c #9796A2",
"W. c #9C9CA3",
"Q. c #A49FA8",
"!. c #B49EA2",
"~. c #9CA0A8",
"^. c #A5A3AB",
"/. c #A8A5AB",
"(. c #B2A5AA",
"). c #BAA7A9",
"_. c #ACABB3",
"`. c #A9A9B4",
"'. c #B3ADB5",
"]. c #B9ACB5",
"[. c #AEB3B8",
"{. c #B3B1B6",
"}. c #BBB3B6",
"|. c #B5B3BB",
" X c #BBB5BC",
".X c #B6B9BE",
"XX c #B9BABE",
"oX c #C1A19F",
"OX c #C39CA1",
"+X c #C6A6A9",
"@X c #C3AAAA",
"#X c #CFB0AD",
"$X c #C4AEB3",
"%X c #CBADB2",
"&X c #C5B5BA",
"*X c #D6B6BB",
"=X c #BBB6C2",
"-X c #B7B8C2",
";X c #BCBCC3",
":X c #BDBDC9",
">X c #C2BDC4",
",X c #C6BCC6",
"<X c #BEC1C6",
"1X c #BEC1C9",
"2X c #C6C2C7",
"3X c #C4C4CC",
"4X c #CBC6CC",
"5X c #CAC9CF",
"6X c #D8C4CA",
"7X c #C9C7D3",
"8X c #CCCCD3",
"9X c #D4CDD4",
"0X c #DACFD7",
"qX c #CBD1D4",
"wX c #D3D2D5",
"eX c #DBD3D6",
"rX c #D3D3DA",
"tX c #DAD4DB",
"yX c #DAD9DE",
"uX c #E3C8CA",
"iX c #E5CCD2",
"pX c #E7D7DB",
"aX c #E4DDDE",
"sX c #D5DBE6",
"dX c #DCDAE2",
"fX c #E2DDE2",
"gX c #E9DAE1",
"hX c #DFE0E7",
"jX c #E5E3EA",
"kX c #EAE5E8",
"lX c #F2E2E9",
/* pixels */
"3.h % g E [ u.%.6.3.3.7.[ 6 [ v.3.g.w.P.n.p.G.%XA.a.r.R.d.3.K.%.K.+XT.$Xa.I.U.M.d.h.P.6.'.^./.H.$X(.f.a.P.+Xg.J.h.P.).R.@X6.6.a.",
"P ..O.=.#.O.O.E O.Q -.=.9.#.O.#.&.>.>.O.-.a ;Xn.>.*.=.c.y m H U +.n b Z n X.X.4 O.I Q O. .;XC.z.O.x.{ { X.Q & Q 8 E | 7...d 7.' ",
"P ..O.=.#.O.O.E O.Q -.=.9.#.O.#.&.>.>.O.-.a ;Xn.>.*.=.c.C m H U +.n b Z n X.X.4 @.I Q O. .;XC.z.O.x.{ { X.Q & Q 8 E | 7...d 7.' ",
"C I #.&.( K G +.^ ^ ( +.+.R R #.+.H C Q r <.3Xm.9.#.O.=.K Z +.Z K q B B K &.K B U m H I ] |.a.%.@.*.] X.@ X.s Q f s ] 8.P ..{ ] ",
"G I ^ I ^ K +.+.+.&.( :.&.q m ) K ! ^ #.@.(.5Xm.&.&.#.:.Q ^ ^ #.=.] ( S S ) ! K ) V U C ] _.6.*.*.7.0.e E @.P P P Q ..J r E @.z.",
"G I ^ I ^ K +.+.+.&.( :.&.q m ) K ! ^ #.@.(.5Xm.&.&.#.:.Q ^ ^ #.=.] ( S S ) ! K ) V U C ] _.6.*.*.7.0.e E @.P P P Q @.J r E @.z.",
"#.J ^ I ! C +.( Z Z U Q #.Z m T ! A K P { F.5Xl.+.-.k.^ R >.O.I &.K O.Q +.) S S Z Z K =.6 G.a.7.0.9.9.*.*.@.] P O.] @.{ { 9.{ ] ",
"=.9.G I C K G X.C H Q X.X.^ N ^ C K K ] { ].;X#.=.=.=.Q &.O.( &.&.X.K m M U C K M F V Z d =Xa.{ O.] z.@.@.@.@.=.=.G @.@.] ] ] #.",
"=.9.G I C K G X.C H Q X.X.^ N ^ C K K ] { ].;X#.=.=.=.Q &.O.( &.&.X.K m m U Z K M F B Z d =Xa.{ { ] z.@.@.@.@.=.=.G @.@.] X.] #.",
"' d 7 % % p p a 7 p 5.2.z L.c % y.a.i.,.g F.;Xu %.7.E 7.v.0.{ 8.< *.I q q C g v x % v v }.;Xj a a c j 4.4.a.3.k k  .h z l 7 % 4.",
"^.H.[._.'.;X.X`._.=X3XqX<X;X3X7X:X2XwX5X{.rXtX3X1X3XwX3X.X3X:X|.3X-X:X<X_.^./.'.>X'._.^.8X8XQ.qX2X4XtX2X4X9X3X:X:X1X5X;X|._.[.D.",
"Q { +.O.Q X.P P [ {. X#.q.d j.K :.m ! $.N ^ x.] I N m C K K X.E } '.J.0.O.-.j.E P.gXeXlX` Q #.) X.=.K m q 3 I N.'.O J U K ( ^ A ",
"Q { +.O.Q X.P P [ {. X#.q.d j.K :.m ! $.N ^ x.] I N m C K K X.E  .'.J.0.X.-.j.E P.gXeXlX` Q #.) X.=.K m q 3 I N.'.O J Y K ( ^ A ",
"1 H C K ^ =.#.O.#.XX5X> K U q C U U ! ) l.! H ! m q b N N K H C i 7Xq.X.#.R K ^ U Z B m 1 K 2 K Z q q Z B ! U c :XA ( U H 9 q ^ ",
"m N q m ;.^ C K j.}.3XQ ^ ^ B m q m B ! V B B U B b M D b U Z K h.;X@.O.#.K A J ^ I K ^ C K K m H I K K ^ K Z Y.,XC K K Z Z S B ",
"m N q m ;.^ C K j.}.3XQ ^ ^ B m q m B ! V B B U B b M D b U Z H h.;X@.O.#.K A J ^ I K ^ C K K m H I K K ^ K Z L.,XC K K Z Z S B ",
": 9 Z B I H C J I }.}.N K H Z H K S U ~ ! Z / B 3 3 V V M V S ^ T.[.*.X.#.#.K ( O.+.+.+.K Q O.^ ^ I ^ ^ q Z K ).|.! K C Z U U S ",
"1 I 9 Z Z H X.I C D._.R #.N 9 Y N B ! ^ e H I U m m M F , n ! : 4.;X*.Y I X.&.:.q +.O.Q O.I ^ ^ +.K ( C H ^ ^ t.&XK A ! ! V S S ",
"1 I 9 Z Z H X.I C D._.! #.N 9 Y N B ! ^ e H I U m m M F , n ! < 4.;X*.Y I X.&.:.q +.O.Q O.I ^ ^ +.K ( C H ^ ^ t.&XK A ! ! V A S ",
"H G L I ^ K I X.X.(.{.O.^ K ! ) . U ! I ^ R K ^ N m m V U m U Z }./.J ;.+.+.+.+.+.O.Q ^ ( ^ ( ^ ) +.U ) ! ( * ,X].D U ^ n F K A ",
"a g.c V.g.g.g.4.2.{.qXg.h.a.A.i.A.L.p.J.h.a a.a.a.h.T.t.L.V.p.A.'.3X(.c 4.g.5.5.c 5.a.h.4.x c B.!.L.A.R.Y.&X&X&XrX,X,X&X].}.].,X",
"W./.8X1X9XtX>X3X|.dXtXjX1X1X7X3X5XwXdXdXjX3X-X2X8XyXrXwXfXaXeXkXjX2XaXaXkXtXrXrXdXhXdXdXsX}.tXjX9XiXpXfX4XyX9XlXaX$XpXpXiXaX4X9X",
"W./.8X<X9XtX>X3X|.dXtXjX1X1X7X3X5XwXdXdXjX3X-X2X8XyXrXwXfXaXeXkXjX2XfXfXkXtXwXwXdXhXdXdXsX}.tXjX9XiXpXfX4XyX9XlXaX$XpXpXiXaX4X9X",
"= = 8 r I k.G 7 w r s # 4 i ,.V._ e L 9.] H. X( V b X T b + M , & m Z o M b + : 5 : K O.Z.wX..#.0 K A < ~ S ~ B +.^ ) H C +.0.b.",
"9 9 I O.=.f { e X.@.@.@.r y m 9 G I #.@.7.H.!.Y ^ I m I K Z U Z C U Z Z V V ; m 8 N ^ O./.5XR K K ^ C ) K 3 Z +.! C U H >.K I C ",
"9 9 I O.=.f { e X.@.@.O.r y m q G I #.@.7.H.!.Y ^ I m I K Z U Z C U Z Z V V ; m 8 N ^ O./.5XR K K ^ C ) K 3 Z +.! C U H :.K I C ",
"H I Q O.O.@.{ 0.@.e.8.z.z.@.0.@.9.@...*.e.H.*XO.^ ^ K ^ H U N ^ ^ +.( ^ K m 9 ; q K -.#./.,XK ! K ) B D m K F V S U ^ ^ #.#.#.W ",
"X.] #.8.9.P 0.0.@.*.n.z.b.@.b.x.e.e.z.k.v.D.).C G +.I K ! Z V ~ ! +.X.V 9 S 9 C K ( &.&.(.'.( R I K Z U F ~ V V ! F ! ^ O.K O.( ",
"X.] O.9.9.P 0.0.*.*.n.z.b.@.b.x.e.0.z.k.v.D.).C G +.I K ! Z V ~ ! +.X.V 9 S 9 C K ( &.&.(.'.( R K S Z ! F ~ V V ! S ! ^ O.K O.( ",
"I { O.@.*.#.8.O.] v.x.v.n.@.x.n.e.0.#.k.q./.h.9 I ^ C H B S U B ! F Z 1 K : N H I I +.I G.{.^ ( ^ S K R S S V ~ ~ S R ! q +.R Q ",
"E { z.z.e.e.@.{ { @.e.7.P 8.P 9.z.z.e.{ v.'.A.G J J Q Q Q Q ; t ) ! A m S Y o.Y X.I O.P 1X XW #.{ O.=.O.-.( ) &.) +.#.) ) K O ! ",
"E { z.z.0.e.@.{ { @.e.7.P 8.P 9.z.z.e.{ v.'.A.G J J Q Q ] Q ; t ) ! A N S Y o.Y X.I X.P 1X XW #.{ O.&.O.-.( ) &.) +.#.) ) K O ! ",
"E { z.z.0.e.@.{ { @.e.7.P 8.P 9.z.z.e.O.v.'.A.G J J Q Q Q Q ; t ) ! A N S Y o.Y X.I +.P 1X XQ #.{ O.=.O.-.( ) +.) +.#.) ) K O ! ",
"'. X>X>X>X'.;X2XXX;X].>X X9X4X|. X_.'.'.[.4X>X5XtXrX3X4X:X3X2X8X3X_._.^.'.{.;X|._._._._.;XqX}.-X2X;X:X|.|.'.:X|.^._./.D.G.H.W.S.",
"&X0X@XoXP.*XU.+X@XeX'.p g u K.y.%XT.R.!.#X%XT.y.h.I.} J.uXv.6 f p ^.%XR.d. .d.*Xg k s.u.s.6XuXR.f { I._ = f  .P.-XpXJ.pXU.h.K.#X",
"J I J +.! B ^ K { *.W.k J X.I C 9 9 C r G I r r J s ] E @.{ =.]  .XX@.f #.^ ! B - +.B < < = ; , ; 1 V m 9 H Z k :X' ( G I O.I G ",
"J I J +.! B ^ K { *.W.k J X.I C 9 9 C r G I r r J s ] E @.{ =.]  .XX@.f #.^ ! B - +.B < < = ; , ; 1 V m 9 H Z k :X' ( G I O.I G ",
"Q Q Q R C B U K &.n./.s.P r H N G L s 9 5 8 = X.O.L N r N #.O.-.y.;X{ Q =.K m K U ; m N C B Z m H H K ~ H 0 J @X_.' J J Q J C Z ",
"0 ! C A Z N 9 I O.d.^...6 ` G G G 9.G P ] ] s X.=.X.J P I 0.E k.g.3X{ I G y K X.^ Q Q Q J U Q J / B A U X.9 ;...^.d G Q I I J K ",
"0 R C A Z N 9 I O.d.^...6 ` J G G 9.G P ] ] s X.=.] J P I 0.E k.g.3X{ I G y K X.^ Q Q Q J U Q J / B A U X.9 ;...^.d G Q I I J K ",
"A R R ^ ! m 1 ) ;.j H...I I % i G ] I I P s P i #.#.E 0.b.9.e =.T.{...O.Q J X.Q J K Q I #.C G I C C K N I K K $ W.s.Q O.J K K J ",
"J ^ ( I K K ( ;.( a.'.k I s s J d | 9.@.] 6 6 8 ] ] 7 9.9.@.@.*.).<Xd J I K I o.& 9 9 I q J G I N 1 K B / V C 7 _.l ] J ^ ^ K U ",
"J ^ ( I K K ( ;.( a.'.k I s s J d | 9.@.] 6 6 8 ] ] 7 9.9.@.@.*.).<Xd J I K I o.& 9 9 I q J G I N 1 K B / V C 7 _.l ] J ^ ^ K U ",
"..a.g 3.k k  .k %.H.:X&X6.f.t.S.p.f.c c 5.p.D.A.p.p.p.S.D.D.D.g.D.'.2XY.i.v A.t.c 5.t.c z x z f.g.2. .h h h p A.{.yX(.4.4.w.k ' ",
"Z.9X0X,X3X9X8XwX:XrXrXjXdXfXkXjX<X4X].>XtX|._.kXkXtXjXwXeXkXkX0XpX{.3X2XtX8XrXwXyXrXqXrX7X3X9X0X8XtX;X|.3X/.;X>X0XtXtXfX2XeXfXeX",
"@XM.&.&.Q J y G I P ' @.+.O.J y #.] *.t ' f.2Xy ] X.J K #.L X.=.] I e.w.x.A ;.+.+.( K P 4.7X9.9.@.#...@.*.z.9.b.P @.P O.^ o P k.",
"@XM.&.&.Q J y G I P ' @.+.O.J y #.] *.t ' f.2Xy X.O.J K #.L X.=.] I e.w.x.A &.+.+.( K P 4.7X9.9.@.#.{ @.*.z.9.b.P @.P O.^ o P k.",
"K q K K U B K Z B B q A C A ^ +.q Z C =.*.f.;X{ =.Q P C J ^ y y q 2 C B ) I C R ! C q N y.2XX.Q ( ( &.R Z B R R 9 C H C Z C G J ",
"K B K H C C ! q C K B ! C K ^ q S K ^ J #.C.3X{ @.=.O.K r Q G ] Q Q G J J I Q Q J J J G w.:XQ ^ J R A B K m C q ( q < B C A L r ",
"K B K H G C ! q C K B ! C K ^ q S K ^ J #.C.2X{ @.=.O.K r Q G ] Q Q G J J I Q Q J J J G w.:XQ ^ J R A B K m C q ( q < B A A L r ",
"B Z I N B K ! m B m Z K < H K K Z I J C ^ l =X{ *.I J I r #.m.Q ] =.Q I J y < J Q Q X.O.4.:XO.^ R J A A A m C I K H R J K A C C ",
"q A B C 3 B q J B Q 2 C ^ ! K H < Y ( ^ Q a.5X{ J r q 8 4 E Q K Q O.C C B q Q J J J Q O.a.[.#.O.0 A B R R ^ ^ ( ^ ^ K ^ O.O.I A ",
"q A B C 3 B q A B Q 2 C ^ ! K H < Y ( ^ Q a.5X{ J r e 8 4 Q Q K Q O.C C B q Q J J J Q O.a.[.O.O.0 A B K R ^ ^ ( ^ ^ K ^ O.O.I A ",
"B ! B A J < Z 3 < 9 t q q q q J C K J y =.y.8X6.% ' u q.3.7.1.{ y ..] ] ] O.Q E Q Q O.^ 2.=X' 1.O.^ C R &.>.) R ! R ^ U ( Q ^ ^ ",
">X.X|.:X;X'.[.XXW.Q.D.^._.|._.{.|.2X>XqXXXqX5X-X|.:X|.|.1X|.8X=X~.G.Q.^.^._.<X7X:X;X:X.X/._.7X3X^.-X_.`.|.^.W.W._.^.|.'.Q.H.E.Z.",
"l $ 6 g f.p V.a.R.].:X*XiX%XC.C.OXn.R.6X&XpX6XC.p I.q.<.} I.<._ @X{.:XyX4XpX%X+X%XR.).gXlX,XR.U.U.} *XR.z   L.].^.(.J.+X*XiX7 uX",
"l $ 6 g f.p V.a.R.].;X*XiX%XC.C.OXn.R.6X&XpX6XC.p I.q.<.} I.<._ @X{.:XyX4XpX%X+X%XR.).gXlX,XR.U.U.} *XR.z   L.].^.(.J.+X*XiX7 uX",
"9.=.j.&.j.x.9.8.j.Y.;X*.=.] J X.O.Q y Q ( K Q C G C K r < C C $ 4 G.&XI K H : < . o L : r . = : q C J E P E y } E.,.C q O.I Q r ",
"< q ] X.=.P P 8.&.V.1X0.=.Q y 8 f Q J R A m t A J C C > C C q J w _.$XG ^ Q I 4 * 6 X q y * y 5 ; q J P ] E t $ _.w.J X.Q Q y I ",
"< q ] X.=.P E 8.&.V.1X0.=.Q y 8 J Q J R A m t A H C C > C C q J w _.$XG ^ Q I 4 * 6 X q y * y 5 ; r J P ] E t $ _.w.J X.Q Q y I ",
"Q Q ^ K J C Q #.k.w.|.8.*.] J 9 X.Q J C K C A K A < K ^ +.J y > w _.J.I G ^ J G C t q : Q P G 9 ; r s Q y f P z E.3.] O.^ C G G ",
"J R J A Q J J Q Q [ ;X*.t Q J y t t 0 K 2 q K R C C > I A J Q Q i .Xy.9 K C I s ] #.J K G ] G J r Q P Q I e E  ._.3.{ J r q C I ",
"J R J A Q J J Q Q [ ;X*.t ^ J y t t 0 K 2 q K R C C & I A J Q Q i .Xy.r K C I s ] #.P K G ] G J r Q J Q I e E  ._.3.{ J r q C I ",
"A J Q Q Q O.Q t W *.XX..R R ^ &.I ^ X.&.O.+.R ^ ;.( ( ( < J ( ( y _.q.G Q I X.P X.Q J r P P I #.q q { f f ' E u |.k =.X.H K I L "
};
