/* XPM */
static char *_d54fc593dba40cfc7058844e19a428bDxC3P9Cx56LMhQOC[] = {
/* columns rows colors chars-per-pixel */
"64 64 133 2 ",
"   c #4D86A3",
".  c #548DAB",
"X  c #5A94B4",
"o  c #5D97B8",
"O  c #5E99BA",
"+  c #6399B7",
"@  c #629CBD",
"#  c #76A4BC",
"$  c #649EC2",
"%  c #66A1C5",
"&  c #6AA3C6",
"*  c #6AA5CA",
"=  c #6DA8CE",
"-  c #73A7C6",
";  c #74AACC",
":  c #7CAECC",
">  c #7FB0CF",
",  c #6FAAD0",
"<  c #72ADD4",
"1  c #74B0D7",
"2  c #7BB2D5",
"3  c #76B2DA",
"4  c #7AB5DD",
"5  c #7BB7E1",
"6  c #7DBAE4",
"7  c #89AEC1",
"8  c #91B9CF",
"9  c #9DBCCB",
"0  c #83B4D3",
"q  c #8BB6D1",
"w  c #8CB9D4",
"e  c #82B7DA",
"r  c #85B9DC",
"t  c #8CBCDB",
"y  c #97BCD0",
"u  c #94BED8",
"i  c #83BCE3",
"p  c #8CBEE1",
"a  c #81BEE9",
"s  c #9AC0D7",
"d  c #97C2DD",
"f  c #9BC3DD",
"g  c #A1C6DD",
"h  c #ABCADB",
"j  c #B7D0DD",
"k  c #8DC1E6",
"l  c #84C1ED",
"z  c #8AC3ED",
"x  c #91C3E4",
"c  c #9BC6E4",
"v  c #9CC8E6",
"b  c #92C7EC",
"n  c #94C9EF",
"m  c #9CCBEB",
"M  c #87C4F1",
"N  c #89C6F4",
"B  c #8BC8F6",
"V  c #8ECBFB",
"C  c #94CBF3",
"Z  c #9BCEF3",
"A  c #91CFFF",
"S  c #99CFF8",
"D  c #9ED0F5",
"F  c #95D0FF",
"G  c #9BD3FF",
"H  c #A4CBE4",
"J  c #A9CEE6",
"K  c #A3CEEB",
"L  c #A9CFEA",
"P  c #B0CFE1",
"I  c #A3D0EF",
"U  c #ABD2EC",
"Y  c #B2D2E6",
"T  c #BAD4E5",
"R  c #B3D4EB",
"E  c #B9D6EB",
"W  c #BDD9EC",
"Q  c #A0CFF2",
"!  c #A3D2F3",
"~  c #ABD5F3",
"^  c #A3D6FF",
"/  c #A9D6F8",
"(  c #A6D8FF",
")  c #ACDAFF",
"_  c #B1D6F1",
"`  c #B4D9F4",
"'  c #BBDCF3",
"]  c #B3DDFF",
"[  c #BBDEF9",
"{  c #BCE1FF",
"}  c #C4D7E3",
"|  c #C3D9E6",
" . c #CADCE7",
".. c #C3DCED",
"X. c #C9DEEC",
"o. c #C3DFF3",
"O. c #C8DFF0",
"+. c #CDE1ED",
"@. c #D2E2ED",
"#. c #C5E1F5",
"$. c #CCE3F4",
"%. c #C3E4FF",
"&. c #C9E7FE",
"*. c #CDE9FF",
"=. c #D2E6F5",
"-. c #D7EAF7",
";. c #DDEBF5",
":. c #D2E7F8",
">. c #D7EBF9",
",. c #D5EBFB",
"<. c #D3EBFF",
"1. c #D6EDFF",
"2. c #DBEDFA",
"3. c #DDECF8",
"4. c #D8EEFF",
"5. c #DCEFFF",
"6. c #DDF0FF",
"7. c #E1EEF5",
"8. c #E3EEF6",
"9. c #E0EEF9",
"0. c #E7F0F6",
"q. c #E9F1F7",
"w. c #E6F1FA",
"e. c #E0F0FC",
"r. c #E1F2FF",
"t. c #E5F3FF",
"y. c #E7F4FF",
"u. c #E8F2F9",
"i. c #EAF5FD",
"p. c #EBF6FF",
"a. c #EEF7FF",
"s. c #EFF8FF",
"d. c #F1F9FF",
/* pixels */
"A A A A A A A A A A A A A A A A A A A A A A A A A A A A A A A A A A A A A A A A A A A A A A A A A A A A A A A A A A A A A A A A ",
"A A A A A A A A A A A A A A A A A A A A A A A A A A A A A A A A A A A A G G G ( ^ ) ( ( ] G G A A A A A A A A A A A A A A A A A ",
"A A A A A A A A A A A A A A A A A A A A A A A A A A A A A A A A A F ( ) { %.&.*.1.1.4.6.1.1.%.%.] ^ G ( G G ^ F A A A A A A A A ",
"A A A A A A A A A A A A A A A A A A A A A A A A A A A A A A A F G ] %.<.4.;.7.p.a.d.d.a.d.a.s.p.y.1.*.%.%.{ { ] F A A A A A A A ",
"A A A A A A A A A A F G G ^ ( ( ( { ] ) ) G A A A A A A A A G ) ] ] ~ ` o.Y P o.K [ #.' { =.3.;.@.7.-.,.%.%.%.{ ( F A A A A A A ",
"A A A A A A G G ^ ] ) { { %.&.*.4.t.y.r.1.*.] F A A G G F G ^ ( ] I n z l < = 1 3 1 5 5 1 , i c H T ..W #._ R _ [ ) F A A A A A ",
"A A A A F ) { %.1.5.4.<.4.4.1.,.3.;.w.p.p.y.r.%.( ] { { ) ) ( ( / C N B B M a 6 5 5 5 3 < < 3 i r 2 0 ; : : ; 6 N B B A A A A A ",
"A A A F { <.r.y.p.p.,.o.#.` ~ n e 0 m &.*.=.p.y.r.4.<.<.%.%.%.{ ] { ] ] ] G V B B B B N B M l l 6 5 1 < 1 1 5 M l N B A A A A A ",
"A F ( %.6.r.6.' L d r i l 4 6 < & @ % l N c o.2.p.d.s.p.y.r.r.y.t.t.r.r.1.&.) ^ G F F F F A A V V B V V A A V B B B V A A A A A ",
"A G ] { ] D < < % % = M 5 4 1 < % X $ $ 5 5 v ' 4.r.y.w.u.w.9.+.| +.$.] *.{ %.{ { ] ( ( G A A A A A A A A A A A A A A A A A A A ",
"A A A N 6 , * * , < 6 A B a a 6 a 6 = 4 6 M k U ' &.#.R J c f q : f C A A A A A A A A A A A A F F G F F A A A A A A A A A A A A ",
"A A A N 6 5 4 a M M V A A B V B V A V N B B N z p x e - & & ; = = 1 l A A A A A A A G G ) ( { ] %.%.] ) ] ( G G F A A A A A A A ",
"A A A A B B B V A A A A A A A A A A A A A B 6 4 = % $ O @ % , 5 6 l B A A A A A G { { *.<.6.r.p.y.p.y.t.r.4.&.%.] { F A A A A A ",
"A A A A A A A A A A A A A A A A A A A A A 5 3 < , < = 1 4 5 M N B V A A A A F ] r.y.p.r.,.' ' #.$.r.s.d.p.t.y.6.4.4.&.G A A A A ",
"A A A G ^ ] ( ) { ) ] ( ( { ^ G A A A A A N 6 a l l N N B V A A A A A ^ { 1.r.d.s.w.$.m k 1 1 5 m ` #.,.3.w.p.p.r.r.1.{ ) G A A ",
"A F { { 6.r.t.r.y.p.t.6.r.*.<.{ ^ A A A A A B V A A A A ^ ( ( ( ( ( ] { %.<.%._ H e 4 3 * * O % * 2 4 r r r c R $.1.{ *.*.%.( G ",
"F %.*.y.d.p.=.$.=.=.-.,.-.3.p.6.&.] G G G G F A A A ) G ) { { ` { %.~ ~ ) B 1 < & < < < 1 $ @ O $ & , * % % % x ` { [ ~ x ^ F F ",
"G { <.#._ > & % 1 1 4 r x m ) ] *.*.{ { { ) G A A A A A A A B z F S n C S z 5 5 5 5 a l a M 5 6 5 5 < 5 5 = 4 l A B l 6 a A A A ",
"A F n 4 = $ o % 3 5 6 a 6 M V A A ^ ) ] ] ) G G G ( G ( ( ( ) ! ( ( G S A A A B B B V A A A A A B l l V N a N V B N N B A A A A ",
"A A a < * = = 1 a B B V B V A A A A A A G ( ] { <.<.<.%.%.&.*.6.4.*.{ ] ( F A A A A A A A A A A A A A A A A A A A A A A A A A A ",
"A A V 5 5 6 M N V A A A A A A A A A F ) &.4.7.q.p.p.y.1.*.r.s.d.a.p.6.1.&.{ ) ( F A A A A A A A A A A A A A A A A A A A A A A A ",
"A A A V N V A A A A A A A A A A G %.4.9.u.0.;.;.;.7.d.a.a.a.p.;.=.2.3.3.r.6.4.<.] G ^ F A F G A A A A A A A A A A A A A A A A A ",
"A A A A A A A A A F F G G ^ ( %.r.p.7.@.X.h t c v [ $.#.#...w p 4 5 5 5 Q ] %.&.{ ) 1.&.%.{ { ( ( G G A A A A A A A A A A A A A ",
"A A A A A A F F ( ] ) ^ G { 1.p.r.6.R u & = = 1 3 3 1 & 1 O $ = < 1 < < z G ( ] ] %.{ %.&.*.&.&.{ ) ( ^ ^ F G F F A A A A A A A ",
"A A A A G ) %.{ { { { { ] ] ( ( ] G N 4 5 5 5 5 1 < % & 5 5 < 6 6 6 a n ] ] %.%.{ ! B C n k G G F ^ ] { %.%.%.*.] { ( ( ( F A A ",
"A A A A G ( ) ^ ^ G F A A A A A A A A B N 5 a l a a 6 N V B V B B B ) %.*.&.{ m 6 6 5 5 5 a A A A ) *.t.a.a.a.p.y.4.<.&.%.{ ( F ",
"A A A A A A A A A A A A A A A A A A A A B M B B B V A A A A F G ( ] { { ] / N 5 5 6 a M N V A A ( 6.y.a.a.r.4.3.-.2.4.1.1.*.{ ( ",
"A A F F ( ( ) ) %.] ( ( F A A A A A A A A A A A A A A A A F ( ] ) ( Z x x a N M N B V A A A ^ %.r.,.$.R f x z x p H ` ' ' { ( F ",
"A G ) %.&.1.1.r.r.t.6.1.*.{ ^ G ( F A A A A A A A F G G ( { { { / i 1 1 5 l V V A A A A F ^ ) J m J 2 ; $ 1 1 3 1 4 k k m C A A ",
"A ) 1.1.6.4.4.6.y.p.p.a.p.r.1.<.%.{ A A A F F F ( { { { &.%.] / 4 5 6 M B V A A A A A A A F B 6 M l l 6 a 6 M M M N N N B V A A ",
"A &.&.<.%.[ K ( ] %.&.4.r.r.6.4.6.*.{ ( ] ) ] ) ^ ^ ( ^ F A A N l B A A A A F F G F A A A A B B A A A A A A A A A A A A A A A A ",
"A F { ^ C < , , 1 N M i ! ~ ] %.&.&.%.*.%.&.%.] G G G G G G G F A A G ( ( %.{ { { ] G ^ A A A A A A A A A A A A A A A A A A A A ",
"A A B l 5 = O O % $ & * * = 4 z C ^ ] ( ] ] ] ) ] ( ^ G ^ G G ) ] %.<.6.t.r.t.r.r.r.4.&.{ ] ( G G F F G F G A A A A A A A A A A ",
"A A l 5 3 < = , * 1 1 * % % * 1 5 M A A A G F G G ) ] ) ] { &.6.t.s.d.d.u.w.;.r.y.y.r.y.t.y.6.<.%.{ ] { ] ] G A A A A A A A A A ",
"A A V N M M N N M N N l l 5 a a l B A A A A A A A F ( ] *.<.r.w.w.;.;...R v H ! ) ] { <.r.p.p.r.t.r.6.4.4.*.{ G A A A A A A A A ",
"A A A A A A A A A A A A A A A V A F G ( ) { { { { *.4.4.6.,.R R t : @ & = 4 5 l A S n ~ ! R [ #.4.4.4.<.%.{ ^ A A A A A A A A A ",
"A A A A A A A A A A A A A A A A ^ { %.{ { ] ) G G ( ] ] ` r i 4 < = = < l N M V A 5 4 1 1 1 1 i ! %.{ ] A A A A A A A A A A A A ",
"A A A A A A A A A A A A A A A F G G G A A A A A A A F F A B a N N a M B A A A A A N 6 6 6 5 6 l B G ) F A A A A A A A A A A A A ",
"A A A A A A A A A A A A A A A A A A F ( ( ( ) ( ) G G G A A A A A A A A A A A A A F B B B B B V A A A A A A A A A A A A A A A A ",
"A A A A A A A A A A A A A A A F ( ( { %.%.*.<.6.*.<.*.{ ( F A A A A A A A A A A A F A A A A A A A A A A A A A A A A A A A A A A ",
"A A A A A A A A A A A A A A A { *.<.<.6.p.y.a.a.p.t.t.6.*.] F A A A A A A G G A A A A A A A A A A A A A A A A A A A A A A A A A ",
"A A A A A A A A A A A A F F G ' $.X.o.W U ) X.;.t.p.a.s.y.6.{ ] ] ] ] { %.{ { ( A F A A A A A A G G G ^ G ^ G G ( F F A A A A A ",
"A A A A A A A A A A A G ) ) _ y 7 : & @ @ O 4 x H #.;.u.p.p.t.r.t.r.t.9.$.1.&.( A A A A A F ( ] %.*.1.6.r.r.4.*.%.{ ) G A A A A ",
"A A A A G ^ { ] ] { ( ( F B i * * * < %   X $ = = < t d E =.r.d.u.=.| | P Z n A A A A A A ) %.1.3.3.3.=.-.,.$.2.t.6.4.%.^ A A A ",
"A A F { ] <.4.r.r.t.6.*.%.G D S B l M $ . . & & % @ o % @ ; i b t 0 w t r z N V A G ^ ( ] ` o.$.| U H t 4 0 e k ~ ` #.` ! S A A ",
"A G &.&.<.6.t.a.y.p.p.y.6.1.&.{ ^ B l < @ $ = = & & = $ = = 5 6 4 5 l M N V A A B z n n k k k % , < 3 1 < < < 1 5 1 6 5 4 a A A ",
"A G ] { m ! ` ! p ~ ! R #.$.,.1.<.{ G B a l l 6 l l a M a l B A A A A A A A A V N a a 6 5 a 6 6 5 M N M N N 6 < 3 4 M 5 5 M A A ",
"A A A 4 4 < 1 O $ = 1 1 2 2 8 Y s R %.%.] ( G A A A A A A A A A A A A A A A A A V V B B B V V A A A A A A A N a M B V B V A A A ",
"A A A V 6 l 3 & O < l a 6 , = = * 4 M B S S S B A A A A A A F ( ( ] %.{ %.] ) ] G G A A A A A A A A A A A A A A A A A A A A A A ",
"A A A A A A N < = 5 A A V B M a a l l M l l N B A A A A F ( { 4.p.d.d.a.r.3.4.1.<.{ ( F A A A A A A A A A A A A A A A A A A A A ",
"A A A A A A A B a B A A A A A A V V B B N B B V A A A G %.1.r.r.7.;.,.$.R u j +.+.X.#.[ ] ] ) ( ( G A A A A A A A A A A A A A A ",
"A A A A A A A A A A A A A A A A A A A A A A A A F ( [ $.O.#.o.K 4 4 ; 1 = @ * ; p d U [ [ { ] { ] ] ] ( ] ) ( ] F A A A A A A A ",
"A A A A A A A A A A A A A A A A A A A A A A G ) _ f H x i a 4 1 = % * < 6 l 6 M 4 5 B S ^ ] %.1.4.r.r.r.6.6.1.<.%.( ( ( ( A A A ",
"A A A A A A A A A A A A A A A A A A A A A A G D r < 5 l N l 1 5 3 1 3 M A A A S C ! ( ) *.6.a.d.d.d.a.a.d.p.w.p.w.1.*.%.{ ( A A ",
"A A A A A A A A A A A A A A A A A A A A A A A B M N B A A A B l N B B V A A ^ ] %.<.6.t.p.a.7.;.$.X.-.:...' J R R =.3.6.*.( F A ",
"A A A A A A F F ^ G ( ( ] ] ] ] ] ( ) ( G G A A A A A A A A A A A A A A F G { &.1.r.r.$.E 0 : & O ; 2 - @ % * % * 2 K #.%.] ) ^ ",
"A A A F ( ) { &.&.6.<.4.6.6.r.6.6.6.<.&.{ ] G A A A A A A A A A A G ( ] { %.%.` ! b 2 & X O X @ = * O X X @ = < < 4 a C G A A G ",
"A A F ] %.<.4.6.a.p.w.t.a.a.w.2.;.3.w.r.6.&.{ ^ G G ( F A A A A A G ^ G F F 5 3 1 & & o O o & = 1 5 4 < < a l N N N B V A A A A ",
"A F ] %.&.<.:.$.#.,.o.R ' U H H g h h }  .r.4.*.{ %.{ ) A A A A A A A A A A N 6 a l 6 5 4 a a a N N B B V A A A A A A A A A A A ",
"A ^ %.W Y J t ; = ; & ; % & O @ @ + # # 9 X.=.=.4.4.1.*.] ( G G F A A A A A A B V A A A B V A A A A A A A A A A A A A A A A A A ",
"B N 4 : @ , * o X O @ X @ . X X . X X @ * 0 : 0 d g T ..R [ { ] ) G A A A A A A A A A A A A A A A A A A A A A A A A A A A A A A ",
"M l l < < l l 5 = * * = * = O @ O X $ = < * * * 1 < 1 4 5 z C l N A A A A A A A A A A A A A A A A A A A A A A A A A A A A A A A ",
"B B V A A A A V B N M l N l l 6 4 5 5 l l N l B B B N N N B N N B A A A A A A A A A A A A A A A A A A A A A A A A A A A A A A A ",
"A A A A A A A A A A A A A A A A A A A A A A A A A A A A A A A A A A A A A A A A A A A A A A A A A A A A A A A A A A A A A A A A "
};
